<?xml version="1.0" encoding="UTF-8"?>
<svg id="Capa_2" data-name="Capa 2" xmlns="http://www.w3.org/2000/svg" width="1459.4" height="227.8" viewBox="0 0 1459.4 227.8">
  <g id="Capa_1-2" data-name="Capa 1">
    <g>
      <path d="M394.6,15.3c0-.9,.2-1.7,.6-2.4,.4-.7,1-1,1.8-1h25.6c.8,0,1.4,.3,1.8,1s.6,1.5,.6,2.4-.2,1.8-.7,2.4c-.4,.7-1,1-1.8,1h-8.8V53.6c0,.8-.4,1.4-1.2,1.8-.8,.4-1.7,.7-2.8,.7s-2-.2-2.8-.7c-.8-.4-1.1-1.1-1.1-1.8V18.8h-8.9c-.8,0-1.4-.3-1.8-1-.4-.7-.7-1.5-.7-2.5Z"/>
      <path d="M422.2,44.2v-5.1c0-3.3,1.3-6.1,3.9-8.5,2.6-2.4,5.7-3.6,9.4-3.6s6.4,1.1,8.8,3.3c2.4,2.2,3.7,4.9,3.7,8.2s-.2,2.2-.5,3c-.3,.8-.8,1.3-1.4,1.6-.6,.3-1.2,.5-1.7,.6-.5,0-1.2,.1-2.1,.1h-12.3v.9c0,1.7,.6,3.1,1.9,4.2,1.3,1.1,3,1.6,5.1,1.6s3-.4,4.5-1.1c1.5-.8,2.5-1.1,2.9-1.1,.8,0,1.6,.4,2.1,1.2,.6,.8,.8,1.5,.8,2.3,0,1.1-1,2.2-3.1,3.4-2,1.1-4.6,1.7-7.6,1.7-4.3,0-7.8-1.1-10.6-3.4-2.7-2.3-4.1-5.3-4.1-9Zm7.8-5.1h8.8c.6,0,1.1-.1,1.4-.3,.3-.2,.4-.6,.4-1.2,0-1.3-.5-2.4-1.5-3.2-1-.8-2.3-1.2-3.8-1.2s-2.6,.4-3.7,1.2c-1,.8-1.6,1.9-1.6,3.2v1.6Z"/>
      <path d="M463.7,44.2v-5c0-3.3,1.1-6.2,3.2-8.6,2.1-2.4,4.6-3.6,7.6-3.6s3.3,.4,4.7,1.3c1.3,.9,2.4,2,3.1,3.3V13.1c0-.7,.4-1.3,1.1-1.8,.7-.4,1.7-.7,2.8-.7s2.1,.2,2.8,.7c.7,.4,1.1,1,1.1,1.8V53.6c0,.6-.4,1.2-1.1,1.7-.7,.5-1.7,.8-2.8,.8s-1.7-.3-2.5-.8-1.1-1.1-1.1-1.7v-1.8c-.6,1.3-1.7,2.4-3.3,3.4-1.6,1-3.3,1.4-5.1,1.4-2.8,0-5.2-1.2-7.4-3.8-2.1-2.5-3.2-5.4-3.2-8.6Zm7.8,0c0,1.4,.5,2.7,1.6,3.8,1,1.1,2.3,1.7,3.7,1.7s2.7-.5,3.8-1.6c1.1-1.1,1.7-2,1.7-2.8v-6c0-1.6-.6-2.9-1.7-3.9-1.1-1-2.4-1.5-3.8-1.5s-2.7,.6-3.8,1.7c-1,1.1-1.6,2.4-1.6,3.8v4.9Z"/>
      <path d="M494.5,48.3c0-3.2,1.2-5.4,3.6-6.7,2.4-1.3,5.9-1.9,10.5-1.9h2.5v-.8c0-1.5-.4-2.9-1.3-4-.9-1.1-2.2-1.7-4-1.7s-3.4,.3-4.7,1c-1.3,.7-2,1-2.2,1-.8,0-1.5-.4-1.9-1.2-.5-.8-.7-1.7-.7-2.7s1-2.2,3.1-3.1c2.1-.9,4.3-1.3,6.6-1.3,4.4,0,7.7,1.1,9.8,3.4,2.1,2.2,3.2,5.1,3.2,8.4v14.8c0,.7-.4,1.3-1.1,1.8-.7,.5-1.6,.7-2.7,.7s-1.8-.3-2.5-.8c-.7-.5-1-1.1-1-1.9v-1.9c-2.8,3.4-5.8,5.1-9.2,5.1s-4.2-.7-5.7-2.1c-1.5-1.4-2.2-3.5-2.2-6.2Zm7.8-1c0,1,.3,1.8,.9,2.3,.6,.5,1.4,.8,2.3,.8s2.5-.6,3.7-1.7c1.2-1.1,1.8-2.4,1.8-3.8v-1.2h-.9c-2.5,0-4.4,.2-5.8,.7-1.4,.5-2.1,1.4-2.1,2.9Z"/>
      <path d="M524.6,53.6V29.8c0-.7,.4-1.3,1.1-1.8,.7-.4,1.6-.7,2.8-.7s1.8,.2,2.4,.7c.7,.4,1,1,1,1.8v1.8c1.7-3.1,4.4-4.6,8-4.6s3.2,.6,4.6,1.7c1.4,1.1,2.3,2.6,3,4.4,1-2,2.3-3.5,4-4.5s3.4-1.6,5.2-1.6c2.9,0,5.4,1.1,7.6,3.3,2.1,2.2,3.2,5.2,3.2,9v14.3c0,.6-.4,1.2-1.2,1.7-.8,.5-1.7,.8-2.8,.8s-1.9-.3-2.7-.8c-.8-.5-1.2-1.1-1.2-1.7v-14.3c0-1.7-.5-3-1.5-4-1-1-2.1-1.5-3.4-1.5s-2.4,.5-3.4,1.5c-.9,1-1.4,2.3-1.4,4v14.4c0,.8-.4,1.4-1.1,1.8-.8,.4-1.7,.6-2.8,.6s-1.9-.2-2.7-.6c-.8-.4-1.2-1-1.2-1.8v-14.4c0-1.6-.5-2.9-1.5-3.9s-2.1-1.5-3.5-1.5-2.4,.5-3.3,1.4c-.9,1-1.4,2.3-1.4,4v14.3c0,.6-.4,1.2-1.2,1.7-.8,.5-1.7,.8-2.8,.8s-2-.3-2.8-.8c-.7-.5-1.1-1.1-1.1-1.7Z"/>
      <path d="M572.1,44.2v-5c0-3.3,1.3-6.2,3.9-8.6,2.6-2.4,5.7-3.7,9.3-3.7s6.6,1.2,9.2,3.6c2.6,2.4,3.9,5.3,3.9,8.6v5c0,3.3-1.3,6.1-3.9,8.6-2.6,2.5-5.7,3.8-9.2,3.8s-6.6-1.2-9.2-3.8c-2.6-2.5-3.9-5.4-3.9-8.6Zm7.8,0c0,1.4,.5,2.7,1.6,3.8,1,1.1,2.3,1.7,3.8,1.7s2.7-.6,3.7-1.7,1.6-2.4,1.6-3.8v-4.9c0-1.4-.5-2.6-1.6-3.7-1.1-1.1-2.3-1.7-3.7-1.7s-2.7,.6-3.8,1.7c-1,1.1-1.6,2.4-1.6,3.8v4.9Z"/>
      <path d="M601.5,51.4c0-.7,.3-1.5,.8-2.3,.5-.8,1.1-1.2,1.8-1.2s1,.2,1.7,.6c.7,.4,1.6,.8,2.7,1.2,1.1,.4,2.4,.6,3.9,.6,3,0,4.5-.8,4.5-2.5s-.5-1.7-1.5-2.2c-1-.5-2.2-1-3.6-1.4-1.4-.4-2.8-.8-4.2-1.3-1.4-.5-2.6-1.3-3.6-2.5-1-1.2-1.5-2.6-1.5-4.4s.9-4.7,2.6-6.5c1.7-1.8,4.5-2.7,8.2-2.7s4.7,.4,6.7,1.1c2,.8,2.9,1.7,2.9,2.8s-.3,1.5-.8,2.4-1.2,1.4-2,1.4-1.2-.3-2.6-.8c-1.4-.5-2.8-.8-4-.8s-2.4,.3-3.1,.8c-.7,.5-1.1,1.2-1.1,1.8s.4,1.2,1.1,1.6c.7,.4,1.6,.8,2.7,1,1.1,.2,2.2,.6,3.4,1,1.2,.4,2.4,.9,3.4,1.4,1,.5,1.9,1.4,2.6,2.6,.7,1.2,1.1,2.6,1.1,4.2,0,2.8-1,5-2.9,6.6-2,1.6-4.7,2.4-8.2,2.4s-5.6-.5-7.7-1.6c-2.1-1-3.2-2.3-3.2-3.6Z"/>
      <path d="M673.4,44.2c-5.6,6.9-13.3,14.8-21.2,18.5-13.3,6.2-19.5-2.7-14.6-18.5,2.9-9.4,15.9-39.2,26.8-43.7,6.1-2.5,11.4,4.4,.2,19.3-6.9,9.2-14,16.9-22,25.2-2.5,7.8-4.4,18.7,7.4,13.2,7.2-3.4,14.4-10.9,19.5-17.1,1.7-2,5.6,1.2,3.9,3.2Zm-25.1-12.6c2.8-3.1,8.7-9.5,12.9-15.6,7-10.2,4.7-13-3-1.5-4.1,6.2-8.1,13.6-9.8,17.1Z"/>
      <path d="M697,34.7c.9,.9,1.3,1.9,.2,3.1-2.5,3-10.1,15.6-5.6,19.6,5.5,5,20.5-9.7,24.7-15.6,1.5-2.1,5.6,1.2,3.8,3.3-5.7,6.7-17.7,20.1-28.1,18.7-7.2-1-8.4-9.1-6.7-14.3-4.3,4-14.6,13.3-19.5,7.7-7.3-8.1,14-33.3,24-19.3,4.2-4.6,4.3-6,7.2-3.3Zm-27.1,18.1c.6,4.7,15.6-10.4,16.4-11.1-4.6-8.8-17.1,4.9-16.4,11.1Z"/>
      <path d="M729.9,53.6V13.1c0-.7,.4-1.3,1.1-1.8,.7-.4,1.6-.7,2.8-.7s2.1,.2,2.8,.7c.8,.4,1.1,1,1.1,1.8V31.6c.7-1.3,1.7-2.4,3.1-3.3,1.3-.9,2.9-1.3,4.7-1.3,2.9,0,5.5,1.2,7.6,3.6,2.1,2.4,3.2,5.3,3.2,8.6v5c0,3.3-1.1,6.1-3.2,8.6-2.1,2.5-4.6,3.8-7.4,3.8s-3.5-.5-5.1-1.4c-1.6-1-2.7-2.1-3.3-3.4v1.8c0,.6-.4,1.2-1.1,1.7-.7,.5-1.5,.8-2.5,.8s-2-.3-2.7-.8c-.7-.5-1.1-1.1-1.1-1.7Zm7.8-8.3c0,.8,.6,1.7,1.7,2.8,1.1,1.1,2.4,1.6,3.8,1.6s2.6-.6,3.7-1.7c1-1.1,1.6-2.4,1.6-3.8v-4.9c0-1.4-.5-2.7-1.6-3.8-1-1.1-2.3-1.7-3.8-1.7s-2.6,.5-3.7,1.5c-1.1,1-1.7,2.3-1.7,3.9v6Z"/>
      <path d="M760.8,17.5c0-.9,.4-1.8,1.3-2.4,.9-.7,1.9-1,3.2-1s2.1,.3,2.9,1c.8,.7,1.2,1.5,1.2,2.4s-.4,1.7-1.2,2.4c-.8,.7-1.8,1-2.9,1s-2.3-.3-3.2-1c-.9-.7-1.3-1.5-1.3-2.4Zm.7,36.1V29.8c0-.7,.3-1.3,1-1.8,.7-.4,1.6-.7,2.7-.7s2,.2,2.7,.7c.7,.4,1.1,1,1.1,1.8v23.8c0,.6-.4,1.2-1.1,1.7-.8,.5-1.6,.8-2.6,.8s-1.9-.3-2.6-.8c-.7-.5-1.1-1.1-1.1-1.7Z"/>
      <path d="M774,44.2v-5.1c0-3.3,1.3-6.1,3.9-8.5,2.6-2.4,5.7-3.6,9.4-3.6s6.4,1.1,8.8,3.3,3.7,4.9,3.7,8.2-.2,2.2-.5,3-.8,1.3-1.4,1.6c-.6,.3-1.2,.5-1.7,.6-.5,0-1.2,.1-2.1,.1h-12.3v.9c0,1.7,.6,3.1,1.9,4.2,1.3,1.1,3,1.6,5.1,1.6s3-.4,4.5-1.1c1.5-.8,2.5-1.1,2.9-1.1,.8,0,1.6,.4,2.1,1.2,.6,.8,.8,1.5,.8,2.3,0,1.1-1,2.2-3.1,3.4-2,1.1-4.6,1.7-7.6,1.7-4.3,0-7.8-1.1-10.6-3.4-2.7-2.3-4.1-5.3-4.1-9Zm7.8-5.1h8.8c.6,0,1.1-.1,1.4-.3,.3-.2,.4-.6,.4-1.2,0-1.3-.5-2.4-1.5-3.2-1-.8-2.3-1.2-3.8-1.2s-2.6,.4-3.7,1.2c-1,.8-1.6,1.9-1.6,3.2v1.6Z"/>
      <path d="M804.4,53.6V29.8c0-.7,.4-1.3,1.1-1.8,.7-.4,1.6-.7,2.8-.7s1.8,.2,2.5,.7c.7,.4,1,1,1,1.8v1.8c.6-1.3,1.7-2.4,3.1-3.3,1.4-.9,3.1-1.3,5-1.3,2.8,0,5.2,1.2,7.3,3.6,2.1,2.4,3.1,5.3,3.1,8.6v14.3c0,.8-.4,1.4-1.2,1.8-.8,.4-1.7,.7-2.8,.7s-1.9-.2-2.7-.7c-.8-.4-1.2-1-1.2-1.8v-14.3c0-1.4-.5-2.7-1.6-3.8-1-1.1-2.3-1.7-3.7-1.7s-2.5,.5-3.5,1.5-1.5,2.3-1.5,3.9v14.3c0,.6-.4,1.2-1.2,1.7-.8,.5-1.7,.8-2.8,.8s-2-.3-2.8-.8c-.7-.5-1.1-1.1-1.1-1.7Z"/>
      <path d="M832.8,30.3c0-.8,.6-1.6,1.8-2.3,1.2-.7,2.3-1,3.4-1s1.9,.4,2.3,1.3l6.7,17.5,6.7-17.4c.4-1,1.1-1.5,2.2-1.5s2.1,.4,3.3,1.1c1.2,.7,1.9,1.5,1.9,2.3s0,.7-.2,1l-10.3,24c-.4,.9-1.6,1.4-3.6,1.4s-3.1-.5-3.5-1.4l-10.4-24c-.2-.3-.3-.6-.3-1.1Z"/>
      <path d="M863.3,44.2v-5.1c0-3.3,1.3-6.1,3.9-8.5,2.6-2.4,5.7-3.6,9.4-3.6s6.4,1.1,8.8,3.3,3.7,4.9,3.7,8.2-.2,2.2-.5,3-.8,1.3-1.4,1.6c-.6,.3-1.2,.5-1.7,.6-.5,0-1.2,.1-2.1,.1h-12.3v.9c0,1.7,.6,3.1,1.9,4.2,1.3,1.1,3,1.6,5.1,1.6s3-.4,4.5-1.1c1.5-.8,2.5-1.1,2.9-1.1,.8,0,1.6,.4,2.1,1.2,.6,.8,.8,1.5,.8,2.3,0,1.1-1,2.2-3.1,3.4-2,1.1-4.6,1.7-7.6,1.7-4.3,0-7.8-1.1-10.6-3.4-2.7-2.3-4.1-5.3-4.1-9Zm7.8-5.1h8.8c.6,0,1.1-.1,1.4-.3,.3-.2,.4-.6,.4-1.2,0-1.3-.5-2.4-1.5-3.2-1-.8-2.3-1.2-3.8-1.2s-2.6,.4-3.7,1.2c-1,.8-1.6,1.9-1.6,3.2v1.6Z"/>
      <path d="M893.6,53.6V29.8c0-.7,.4-1.3,1.1-1.8,.7-.4,1.6-.7,2.8-.7s1.8,.2,2.5,.7c.7,.4,1,1,1,1.8v1.8c.6-1.3,1.7-2.4,3.1-3.3,1.4-.9,3.1-1.3,5-1.3,2.8,0,5.2,1.2,7.3,3.6,2.1,2.4,3.1,5.3,3.1,8.6v14.3c0,.8-.4,1.4-1.2,1.8-.8,.4-1.7,.7-2.8,.7s-1.9-.2-2.7-.7c-.8-.4-1.2-1-1.2-1.8v-14.3c0-1.4-.5-2.7-1.6-3.8-1-1.1-2.3-1.7-3.7-1.7s-2.5,.5-3.5,1.5-1.5,2.3-1.5,3.9v14.3c0,.6-.4,1.2-1.2,1.7-.8,.5-1.7,.8-2.8,.8s-2-.3-2.8-.8c-.7-.5-1.1-1.1-1.1-1.7Z"/>
      <path d="M924.8,17.5c0-.9,.4-1.8,1.3-2.4,.9-.7,1.9-1,3.2-1s2.1,.3,2.9,1c.8,.7,1.2,1.5,1.2,2.4s-.4,1.7-1.2,2.4c-.8,.7-1.8,1-2.9,1s-2.3-.3-3.2-1c-.9-.7-1.3-1.5-1.3-2.4Zm.7,36.1V29.8c0-.7,.3-1.3,1-1.8,.7-.4,1.6-.7,2.7-.7s2,.2,2.7,.7c.7,.4,1.1,1,1.1,1.8v23.8c0,.6-.4,1.2-1.1,1.7-.8,.5-1.6,.8-2.6,.8s-1.9-.3-2.6-.8c-.7-.5-1.1-1.1-1.1-1.7Z"/>
      <path d="M938.1,44.2v-5c0-3.3,1.1-6.2,3.2-8.6,2.1-2.4,4.6-3.6,7.6-3.6s3.3,.4,4.7,1.3c1.4,.9,2.4,2,3.1,3.3V13.1c0-.7,.4-1.3,1.1-1.8s1.7-.7,2.8-.7,2.1,.2,2.8,.7c.7,.4,1.1,1,1.1,1.8V53.6c0,.6-.4,1.2-1.1,1.7-.7,.5-1.7,.8-2.8,.8s-1.7-.3-2.4-.8c-.7-.5-1.1-1.1-1.1-1.7v-1.8c-.6,1.3-1.7,2.4-3.3,3.4-1.6,1-3.3,1.4-5.1,1.4-2.8,0-5.2-1.2-7.4-3.8-2.1-2.5-3.2-5.4-3.2-8.6Zm7.8,0c0,1.4,.5,2.7,1.6,3.8,1,1.1,2.3,1.7,3.7,1.7s2.7-.5,3.8-1.6,1.7-2,1.7-2.8v-6c0-1.6-.6-2.9-1.7-3.9-1.1-1-2.4-1.5-3.8-1.5s-2.7,.6-3.8,1.7-1.6,2.4-1.6,3.8v4.9Z"/>
      <path d="M968.9,48.3c0-3.2,1.2-5.4,3.6-6.7,2.4-1.3,5.9-1.9,10.5-1.9h2.5v-.8c0-1.5-.4-2.9-1.3-4-.9-1.1-2.2-1.7-4-1.7s-3.4,.3-4.7,1c-1.3,.7-2,1-2.2,1-.8,0-1.5-.4-1.9-1.2-.5-.8-.7-1.7-.7-2.7s1-2.2,3.1-3.1c2.1-.9,4.3-1.3,6.6-1.3,4.4,0,7.7,1.1,9.8,3.4,2.1,2.2,3.2,5.1,3.2,8.4v14.8c0,.7-.4,1.3-1.1,1.8s-1.6,.7-2.7,.7-1.8-.3-2.5-.8c-.7-.5-1-1.1-1-1.9v-1.9c-2.8,3.4-5.8,5.1-9.2,5.1s-4.2-.7-5.7-2.1c-1.5-1.4-2.2-3.5-2.2-6.2Zm7.8-1c0,1,.3,1.8,.9,2.3,.6,.5,1.4,.8,2.3,.8s2.5-.6,3.8-1.7c1.2-1.1,1.8-2.4,1.8-3.8v-1.2h-.9c-2.5,0-4.4,.2-5.8,.7-1.4,.5-2.1,1.4-2.1,2.9Z"/>
      <path d="M1009.4,48.3c0-3.2,1.2-5.4,3.6-6.7,2.4-1.3,5.9-1.9,10.5-1.9h2.5v-.8c0-1.5-.4-2.9-1.3-4-.9-1.1-2.2-1.7-4-1.7s-3.4,.3-4.7,1c-1.3,.7-2,1-2.2,1-.8,0-1.5-.4-1.9-1.2-.5-.8-.7-1.7-.7-2.7s1-2.2,3.1-3.1c2.1-.9,4.3-1.3,6.6-1.3,4.4,0,7.7,1.1,9.8,3.4,2.1,2.2,3.2,5.1,3.2,8.4v14.8c0,.7-.4,1.3-1.1,1.8s-1.6,.7-2.7,.7-1.8-.3-2.5-.8c-.7-.5-1-1.1-1-1.9v-1.9c-2.8,3.4-5.8,5.1-9.2,5.1s-4.2-.7-5.7-2.1c-1.5-1.4-2.2-3.5-2.2-6.2Zm7.8-1c0,1,.3,1.8,.9,2.3,.6,.5,1.4,.8,2.3,.8s2.5-.6,3.8-1.7c1.2-1.1,1.8-2.4,1.8-3.8v-1.2h-.9c-2.5,0-4.4,.2-5.8,.7-1.4,.5-2.1,1.4-2.1,2.9Z"/>
    </g>
    <g>
      <path d="M0,151v-57.5c0-1.2,.6-2.1,1.7-2.7,1.1-.6,2.5-.9,4.1-.9s2.9,.3,4.1,.9c1.1,.6,1.7,1.5,1.7,2.7v51h21.6c1.1,0,1.9,.5,2.5,1.5,.6,1,.9,2.2,.9,3.5s-.3,2.5-.9,3.5c-.6,1-1.5,1.5-2.5,1.5H5c-1.4,0-2.5-.3-3.5-1-1-.6-1.5-1.5-1.5-2.7Z"/>
      <path d="M39.4,143.3c0-4.6,1.8-7.9,5.3-9.8,3.5-1.9,8.6-2.8,15.3-2.8h3.6v-1.2c0-2.2-.6-4.2-1.9-5.9-1.3-1.7-3.2-2.5-5.9-2.5s-4.9,.5-6.8,1.5c-1.9,1-3,1.5-3.3,1.5-1.2,0-2.1-.6-2.8-1.8-.7-1.2-1.1-2.5-1.1-3.9s1.5-3.2,4.6-4.5c3-1.3,6.2-1.9,9.6-1.9,6.4,0,11.2,1.6,14.3,4.9,3.1,3.3,4.7,7.4,4.7,12.3v21.7c0,1-.5,1.9-1.6,2.6-1.1,.7-2.4,1.1-4,1.1s-2.7-.4-3.7-1.1c-1-.8-1.5-1.7-1.5-2.7v-2.7c-4.1,4.9-8.5,7.4-13.4,7.4s-6.1-1-8.3-3.1c-2.2-2.1-3.2-5.1-3.2-9Zm11.4-1.4c0,1.5,.4,2.6,1.3,3.4,.9,.8,2,1.1,3.4,1.1s3.7-.8,5.5-2.5c1.8-1.7,2.7-3.5,2.7-5.5v-1.8h-1.3c-3.6,0-6.4,.3-8.4,1-2,.7-3.1,2.1-3.1,4.2Z"/>
      <path d="M80.9,147.8c0-1.1,.4-2.2,1.2-3.3,.8-1.1,1.7-1.7,2.7-1.7s1.5,.3,2.5,.9c1,.6,2.3,1.2,3.9,1.8,1.6,.6,3.5,.9,5.7,.9,4.4,0,6.5-1.2,6.5-3.7s-.7-2.5-2.2-3.3c-1.4-.8-3.2-1.5-5.2-2-2-.5-4.1-1.1-6.1-1.8-2.1-.7-3.8-1.9-5.3-3.6-1.4-1.7-2.2-3.9-2.2-6.5s1.3-6.8,3.8-9.4c2.5-2.6,6.5-4,12-4s6.9,.6,9.8,1.7c2.9,1.1,4.3,2.5,4.3,4.1s-.4,2.2-1.2,3.5c-.8,1.3-1.8,2-3,2s-1.8-.4-3.8-1.1c-2.1-.7-4.1-1.1-5.9-1.1s-3.5,.4-4.6,1.2c-1.1,.8-1.6,1.7-1.6,2.7s.5,1.8,1.6,2.4c1.1,.6,2.4,1.1,3.9,1.5,1.6,.3,3.2,.8,5,1.4s3.5,1.3,5,2.1c1.5,.8,2.8,2.1,3.9,3.7s1.6,3.7,1.6,6.2c0,4.1-1.4,7.3-4.3,9.6-2.9,2.3-6.9,3.5-12,3.5s-8.2-.8-11.3-2.3c-3.1-1.5-4.7-3.3-4.7-5.3Z"/>
      <path d="M136.5,137.3v-7.1c0-5.4,1.6-9.8,4.8-13.1,3.2-3.3,8-5,14.3-5s7.4,.7,10.1,2.1c2.7,1.4,4.1,3,4.1,4.8s-.4,2.5-1.3,3.7c-.9,1.2-1.9,1.9-3.2,1.9s-1.4-.4-3.1-1.2c-1.7-.8-3.6-1.2-5.6-1.2-5.7,0-8.6,2.7-8.6,8.1v7c0,5.4,2.9,8.1,8.7,8.1s3.9-.4,5.6-1.3c1.7-.9,2.8-1.3,3.3-1.3,1.4,0,2.6,.6,3.5,1.8,.9,1.2,1.4,2.4,1.4,3.6,0,1.8-1.4,3.5-4.3,5-2.9,1.5-6.3,2.3-10.3,2.3-6.4,0-11.2-1.7-14.4-5-3.2-3.3-4.8-7.7-4.8-13.2Z"/>
      <path d="M176.3,151v-34.8c0-1.1,.5-1.9,1.5-2.6,1-.6,2.4-1,4-1s2.7,.3,3.7,1c1,.7,1.5,1.5,1.5,2.6v3.7c.9-2.1,2.4-3.9,4.4-5.4,2-1.5,4.2-2.3,6.5-2.3h2.7c1.1,0,2,.5,2.9,1.5,.9,1,1.3,2.2,1.3,3.5s-.4,2.6-1.3,3.6c-.9,1-1.8,1.5-2.9,1.5h-2.7c-2.7,0-5.1,1.2-7.1,3.6-2,2.4-3.1,5.6-3.1,9.4v15.8c0,.9-.6,1.7-1.8,2.5-1.2,.8-2.5,1.1-4.1,1.1s-2.9-.4-4-1.1c-1.1-.7-1.6-1.6-1.6-2.5Z"/>
      <path d="M207.1,137.3v-7.5c0-4.8,1.9-9,5.7-12.5,3.8-3.5,8.3-5.2,13.7-5.2s9.3,1.6,12.9,4.8c3.6,3.2,5.4,7.2,5.4,11.9s-.2,3.2-.7,4.3c-.4,1.1-1.1,1.9-2,2.4-.9,.5-1.8,.8-2.5,.9-.8,.1-1.8,.2-3,.2h-18v1.3c0,2.5,.9,4.6,2.8,6.1,1.9,1.6,4.4,2.3,7.5,2.3s4.5-.6,6.6-1.7c2.2-1.1,3.6-1.7,4.2-1.7,1.2,0,2.3,.6,3.1,1.7,.8,1.1,1.2,2.3,1.2,3.3,0,1.7-1.5,3.3-4.5,4.9-3,1.6-6.7,2.4-11.1,2.4-6.3,0-11.5-1.7-15.4-5-4-3.3-6-7.7-6-13.1Zm11.4-7.4h12.9c.9,0,1.6-.2,2-.5,.4-.3,.6-.9,.6-1.8,0-1.9-.8-3.5-2.3-4.7-1.5-1.2-3.3-1.8-5.5-1.8s-3.9,.6-5.4,1.8c-1.5,1.2-2.3,2.7-2.3,4.7v2.3Z"/>
      <path d="M249.9,137.3v-7.5c0-4.8,1.9-9,5.7-12.5,3.8-3.5,8.3-5.2,13.7-5.2s9.3,1.6,12.9,4.8c3.6,3.2,5.4,7.2,5.4,11.9s-.2,3.2-.7,4.3c-.4,1.1-1.1,1.9-2,2.4-.9,.5-1.8,.8-2.5,.9-.8,.1-1.8,.2-3,.2h-18v1.3c0,2.5,.9,4.6,2.8,6.1,1.9,1.6,4.4,2.3,7.5,2.3s4.5-.6,6.6-1.7c2.2-1.1,3.6-1.7,4.2-1.7,1.2,0,2.3,.6,3.1,1.7,.8,1.1,1.2,2.3,1.2,3.3,0,1.7-1.5,3.3-4.5,4.9-3,1.6-6.7,2.4-11.1,2.4-6.3,0-11.5-1.7-15.4-5-4-3.3-6-7.7-6-13.1Zm11.4-7.4h12.9c.9,0,1.6-.2,2-.5,.4-.3,.6-.9,.6-1.8,0-1.9-.8-3.5-2.3-4.7-1.5-1.2-3.3-1.8-5.5-1.8s-3.9,.6-5.4,1.8c-1.5,1.2-2.3,2.7-2.3,4.7v2.3Z"/>
      <path d="M294.3,151v-34.8c0-1.1,.5-1.9,1.5-2.6,1-.6,2.4-1,4.1-1s2.6,.3,3.6,1c1,.7,1.5,1.5,1.5,2.6v2.7c.9-1.9,2.5-3.5,4.6-4.8,2.1-1.3,4.5-2,7.3-2,4.1,0,7.6,1.8,10.7,5.3,3,3.5,4.6,7.8,4.6,12.6v21c0,1.1-.6,2-1.7,2.7-1.1,.6-2.5,1-4,1s-2.8-.3-3.9-1c-1.1-.6-1.7-1.5-1.7-2.6v-20.9c0-2.1-.8-3.9-2.3-5.5-1.5-1.6-3.3-2.4-5.4-2.4s-3.6,.7-5.1,2.2c-1.4,1.5-2.2,3.4-2.2,5.7v20.9c0,.9-.6,1.7-1.7,2.5-1.2,.8-2.5,1.1-4,1.1s-2.9-.4-4-1.1c-1.1-.7-1.6-1.6-1.6-2.5Z"/>
      <path d="M339.2,137.3v-7.1c0-5.4,1.6-9.8,4.8-13.1,3.2-3.3,8-5,14.3-5s7.4,.7,10.1,2.1c2.7,1.4,4.1,3,4.1,4.8s-.4,2.5-1.3,3.7c-.9,1.2-1.9,1.9-3.2,1.9s-1.4-.4-3.1-1.2c-1.7-.8-3.6-1.2-5.6-1.2-5.7,0-8.6,2.7-8.6,8.1v7c0,5.4,2.9,8.1,8.7,8.1s3.9-.4,5.6-1.3c1.7-.9,2.8-1.3,3.3-1.3,1.4,0,2.6,.6,3.5,1.8,.9,1.2,1.4,2.4,1.4,3.6,0,1.8-1.4,3.5-4.3,5-2.9,1.5-6.3,2.3-10.3,2.3-6.4,0-11.2-1.7-14.4-5-3.2-3.3-4.8-7.7-4.8-13.2Z"/>
      <path d="M378.4,98.2c0-1.4,.6-2.6,1.9-3.6,1.3-1,2.8-1.5,4.6-1.5s3.1,.5,4.2,1.5c1.2,1,1.7,2.2,1.7,3.6s-.6,2.5-1.7,3.5c-1.2,1-2.6,1.5-4.2,1.5s-3.4-.5-4.6-1.5c-1.3-1-1.9-2.2-1.9-3.5Zm1.1,52.8v-34.8c0-1.1,.5-1.9,1.5-2.6,1-.6,2.3-1,3.9-1s2.9,.3,4,1c1,.6,1.6,1.5,1.6,2.6v34.8c0,.9-.6,1.7-1.7,2.5-1.1,.8-2.4,1.1-3.9,1.1s-2.8-.4-3.9-1.1c-1-.7-1.6-1.6-1.6-2.5Z"/>
      <path d="M396.8,143.3c0-4.6,1.8-7.9,5.3-9.8,3.5-1.9,8.6-2.8,15.3-2.8h3.6v-1.2c0-2.2-.6-4.2-1.9-5.9-1.3-1.7-3.2-2.5-5.9-2.5s-4.9,.5-6.8,1.5c-1.9,1-3,1.5-3.3,1.5-1.2,0-2.1-.6-2.8-1.8-.7-1.2-1.1-2.5-1.1-3.9s1.5-3.2,4.6-4.5c3-1.3,6.2-1.9,9.6-1.9,6.4,0,11.2,1.6,14.3,4.9,3.1,3.3,4.7,7.4,4.7,12.3v21.7c0,1-.5,1.9-1.6,2.6-1.1,.7-2.4,1.1-4,1.1s-2.7-.4-3.7-1.1c-1-.8-1.5-1.7-1.5-2.7v-2.7c-4.1,4.9-8.5,7.4-13.4,7.4s-6.1-1-8.3-3.1c-2.2-2.1-3.2-5.1-3.2-9Zm11.4-1.4c0,1.5,.4,2.6,1.3,3.4,.9,.8,2,1.1,3.4,1.1s3.7-.8,5.5-2.5c1.8-1.7,2.7-3.5,2.7-5.5v-1.8h-1.3c-3.6,0-6.4,.3-8.4,1-2,.7-3.1,2.1-3.1,4.2Z"/>
      <path d="M438.2,147.8c0-1.1,.4-2.2,1.2-3.3,.8-1.1,1.7-1.7,2.7-1.7s1.5,.3,2.5,.9c1,.6,2.3,1.2,3.9,1.8,1.6,.6,3.5,.9,5.7,.9,4.4,0,6.5-1.2,6.5-3.7s-.7-2.5-2.2-3.3c-1.4-.8-3.2-1.5-5.2-2-2-.5-4.1-1.1-6.1-1.8-2.1-.7-3.8-1.9-5.3-3.6-1.4-1.7-2.2-3.9-2.2-6.5s1.3-6.8,3.8-9.4c2.5-2.6,6.5-4,12-4s6.9,.6,9.8,1.7c2.9,1.1,4.3,2.5,4.3,4.1s-.4,2.2-1.2,3.5c-.8,1.3-1.8,2-3,2s-1.8-.4-3.8-1.1c-2.1-.7-4.1-1.1-5.9-1.1s-3.5,.4-4.6,1.2-1.6,1.7-1.6,2.7,.5,1.8,1.6,2.4c1.1,.6,2.4,1.1,3.9,1.5,1.6,.3,3.2,.8,5,1.4s3.5,1.3,5,2.1c1.5,.8,2.8,2.1,3.9,3.7,1,1.7,1.6,3.7,1.6,6.2,0,4.1-1.4,7.3-4.3,9.6-2.9,2.3-6.9,3.5-12,3.5s-8.2-.8-11.3-2.3c-3.1-1.5-4.7-3.3-4.7-5.3Z"/>
      <path d="M556,137.9c-8.5,7.2-39.5,23.3-40.2,24.1-2,2.3-17.6,50-38.3,55.3-12,3-19.4-9.8-9.1-26.6,8.4-13.6,27.6-25.7,41.6-33.9,2.1-5.1,4.2-10.4,6.2-15.6-23.8,27.2-35.8,8.5-19-16.1,2.2-3.2,8.2,1,6.1,4.1-2.4,3.5-7.9,13.3-6.6,17.8,0,0,0,.2,0,.2,6.1,1.9,25.3-25.7,29.9-31.4,2.1-2.7,7.6,.6,6.3,3.8l-12.5,31.4c8.2-4.6,24.6-13.3,31-18.7,3.1-2.5,7.6,3.2,4.8,5.6Zm-51,30.6c-11.2,7-24.3,16.3-30.3,26.1-11.4,18.5,3.6,25.1,19.8-4.7,3.8-7,7.3-14.1,10.5-21.4Z"/>
      <path d="M571.1,140.4v-42.4c0-1,.6-1.8,1.8-2.5,1.2-.7,2.5-1,3.9-1s2.9,.3,4,1c1.2,.7,1.7,1.5,1.7,2.4v14.6h10.4c.9,0,1.6,.4,2.1,1.3s.8,2,.8,3.2-.3,2.3-.8,3.2c-.5,.9-1.2,1.3-2.1,1.3h-10.4v18.4c0,1.6,.4,2.8,1.1,3.5,.7,.7,2,1,3.8,1h3.4c1.5,0,2.7,.5,3.6,1.5,.9,1,1.3,2.2,1.3,3.5s-.4,2.6-1.3,3.6c-.9,1-2,1.5-3.6,1.5h-3.4c-10.9,0-16.4-4.7-16.4-14.2Z"/>
      <path d="M599.8,137.3v-7.5c0-4.8,1.9-9,5.7-12.5,3.8-3.5,8.3-5.2,13.7-5.2s9.3,1.6,12.9,4.8c3.6,3.2,5.4,7.2,5.4,11.9s-.2,3.2-.7,4.3c-.4,1.1-1.1,1.9-2,2.4-.9,.5-1.8,.8-2.5,.9-.8,.1-1.8,.2-3,.2h-18v1.3c0,2.5,.9,4.6,2.8,6.1,1.9,1.6,4.4,2.3,7.5,2.3s4.5-.6,6.6-1.7c2.2-1.1,3.6-1.7,4.2-1.7,1.2,0,2.3,.6,3.1,1.7,.8,1.1,1.2,2.3,1.2,3.3,0,1.7-1.5,3.3-4.5,4.9-3,1.6-6.7,2.4-11.1,2.4-6.3,0-11.5-1.7-15.4-5-4-3.3-6-7.7-6-13.1Zm11.4-7.4h12.9c.9,0,1.6-.2,2-.5,.4-.3,.6-.9,.6-1.8,0-1.9-.8-3.5-2.3-4.7-1.5-1.2-3.3-1.8-5.5-1.8s-3.9,.6-5.4,1.8c-1.5,1.2-2.3,2.7-2.3,4.7v2.3Z"/>
      <path d="M644.2,151v-34.8c0-1.1,.5-1.9,1.5-2.6,1-.6,2.4-1,4.1-1s2.6,.3,3.6,1c1,.7,1.5,1.5,1.5,2.6v2.7c2.5-4.5,6.4-6.8,11.7-6.8s4.7,.8,6.7,2.5c2,1.6,3.4,3.8,4.4,6.5,1.5-2.9,3.4-5.1,5.8-6.6,2.4-1.5,4.9-2.3,7.6-2.3,4.2,0,7.9,1.6,11.1,4.9,3.1,3.2,4.7,7.6,4.7,13.1v21c0,.9-.6,1.7-1.7,2.5-1.1,.8-2.5,1.1-4,1.1s-2.8-.4-3.9-1.1c-1.2-.8-1.7-1.6-1.7-2.5v-20.9c0-2.5-.7-4.4-2.1-5.9s-3.1-2.2-5-2.2-3.5,.7-4.9,2.2c-1.4,1.4-2.1,3.4-2.1,5.8v21.1c0,1.2-.6,2.1-1.7,2.6-1.1,.6-2.5,.9-4.1,.9s-2.8-.3-3.9-.9c-1.1-.6-1.7-1.5-1.7-2.6v-21c0-2.4-.7-4.3-2.2-5.7-1.4-1.5-3.1-2.2-5.1-2.2s-3.5,.7-4.9,2.1c-1.4,1.4-2,3.4-2,5.8v20.9c0,.9-.6,1.7-1.7,2.5-1.1,.8-2.5,1.1-4,1.1s-2.9-.4-4-1.1c-1.1-.7-1.6-1.6-1.6-2.5Z"/>
      <path d="M713.7,137.3v-7.3c0-4.8,1.9-9,5.7-12.6,3.8-3.6,8.3-5.4,13.5-5.4s9.6,1.8,13.4,5.3c3.8,3.5,5.7,7.8,5.7,12.6v7.3c0,4.8-1.9,9-5.7,12.6-3.8,3.7-8.3,5.5-13.4,5.5s-9.6-1.8-13.4-5.5c-3.8-3.7-5.7-7.9-5.7-12.6Zm11.4,0c0,2.1,.8,4,2.3,5.6,1.5,1.6,3.4,2.5,5.5,2.5s3.9-.8,5.4-2.5,2.3-3.5,2.3-5.6v-7.2c0-2-.8-3.8-2.3-5.4-1.6-1.6-3.4-2.5-5.4-2.5s-4,.8-5.5,2.4c-1.5,1.6-2.3,3.4-2.3,5.5v7.2Z"/>
      <path d="M759.3,151v-34.8c0-1.1,.5-1.9,1.5-2.6,1-.6,2.4-1,4-1s2.7,.3,3.7,1c1,.7,1.5,1.5,1.5,2.6v3.7c.9-2.1,2.4-3.9,4.4-5.4,2-1.5,4.2-2.3,6.5-2.3h2.7c1.1,0,2,.5,2.9,1.5,.9,1,1.3,2.2,1.3,3.5s-.4,2.6-1.3,3.6c-.9,1-1.8,1.5-2.9,1.5h-2.7c-2.7,0-5.1,1.2-7.1,3.6-2,2.4-3.1,5.6-3.1,9.4v15.8c0,.9-.6,1.7-1.8,2.5-1.2,.8-2.5,1.1-4.1,1.1s-2.9-.4-4-1.1c-1.1-.7-1.6-1.6-1.6-2.5Z"/>
      <path d="M790.2,137.3v-7.5c0-4.8,1.9-9,5.7-12.5,3.8-3.5,8.3-5.2,13.7-5.2s9.3,1.6,12.9,4.8c3.6,3.2,5.4,7.2,5.4,11.9s-.2,3.2-.7,4.3c-.4,1.1-1.1,1.9-2,2.4-.9,.5-1.8,.8-2.5,.9-.8,.1-1.8,.2-3,.2h-18v1.3c0,2.5,.9,4.6,2.8,6.1,1.9,1.6,4.4,2.3,7.5,2.3s4.5-.6,6.6-1.7c2.2-1.1,3.6-1.7,4.2-1.7,1.2,0,2.3,.6,3.1,1.7,.8,1.1,1.2,2.3,1.2,3.3,0,1.7-1.5,3.3-4.5,4.9-3,1.6-6.7,2.4-11.1,2.4-6.3,0-11.5-1.7-15.4-5-4-3.3-6-7.7-6-13.1Zm11.4-7.4h12.9c.9,0,1.6-.2,2-.5,.4-.3,.6-.9,.6-1.8,0-1.9-.8-3.5-2.3-4.7-1.5-1.2-3.3-1.8-5.5-1.8s-3.9,.6-5.4,1.8c-1.5,1.2-2.3,2.7-2.3,4.7v2.3Z"/>
      <path d="M831.9,147.8c0-1.1,.4-2.2,1.2-3.3,.8-1.1,1.7-1.7,2.7-1.7s1.5,.3,2.5,.9c1,.6,2.3,1.2,3.9,1.8,1.6,.6,3.5,.9,5.7,.9,4.4,0,6.5-1.2,6.5-3.7s-.7-2.5-2.2-3.3c-1.4-.8-3.2-1.5-5.2-2-2-.5-4.1-1.1-6.1-1.8-2.1-.7-3.8-1.9-5.3-3.6-1.4-1.7-2.2-3.9-2.2-6.5s1.3-6.8,3.8-9.4,6.5-4,12-4,6.9,.6,9.8,1.7c2.9,1.1,4.3,2.5,4.3,4.1s-.4,2.2-1.2,3.5c-.8,1.3-1.8,2-3,2s-1.8-.4-3.8-1.1c-2.1-.7-4.1-1.1-5.9-1.1s-3.5,.4-4.6,1.2c-1.1,.8-1.6,1.7-1.6,2.7s.5,1.8,1.6,2.4c1.1,.6,2.4,1.1,3.9,1.5,1.6,.3,3.2,.8,5,1.4s3.5,1.3,5,2.1c1.5,.8,2.8,2.1,3.9,3.7,1,1.7,1.6,3.7,1.6,6.2,0,4.1-1.4,7.3-4.3,9.6-2.9,2.3-6.9,3.5-12,3.5s-8.2-.8-11.3-2.3c-3.1-1.5-4.7-3.3-4.7-5.3Z"/>
      <path d="M929.2,121.5c2.2,2-.6,5-2.7,9l-18.3,40.1c4.2-.4,7-.5,8.5,.5,2.1,1.3,1.6,6.3-.7,6.8-1.8,.3-5-.5-11,.7-3.1,7.9-12.3,35.9-6.9,43.1,2.1,2.7-6.6,8.7-8.9,4.8-2.3-3.8-3.9-16.2,7.2-45.8-4.2,.9-11.4,3.9-14.6,5.8-3.4,2-8.7-3.9-6.4-5.9,4.1-3.7,19.8-7.7,24.3-8.4,3.8-9.7,8-19.4,12.5-29-5.7,5.3-21.1,19.6-28.5,11.3-10.6-11.9,20.4-48.7,35.1-28.2,6.2-6.7,6.3-8.7,10.5-4.8Zm-15.8,10.2c-6.8-12.8-24.9,7.6-24.6,16.7,.3,6.8,23.5-15.7,24.6-16.7Z"/>
      <path d="M1006.7,137.9c-7,5.9-29.4,23.8-39.2,16-2.2-1.8-3-4.7-2.9-7.6-5.5,6-17.9,18.6-25.6,16.6-12.5-3.2,.3-23.6,3.7-29.3,2-3.5,10.2-.5,8.1,3.2-2.9,4.9-16.7,26.7-1.6,14.6,8.3-6.7,18.2-19,22.3-24.5,2.3-3.1,8.2,0,6.4,3.2-1.9,3.4-7.8,16.2-5.1,17.9,5.5,3.6,26-12.6,29.2-15.3,3.3-2.8,7.8,2.6,4.6,5.2Z"/>
      <path d="M1056.8,137.5c-28.1,35.7-62.4,31.4-60,9.5,2.2-19.9,26-32.5,30.7-21.5,3.6,8.8-9.4,14.9-16.8,17.1-1.9,.6-3.8,1-5.8,1.4-5.5,19.1,24.2,17.2,46.3-10.9,2.5-3.1,8.2,1.3,5.7,4.4Zm-47.1-2.2c1.7-.5,4.9-1.6,7.4-3.1,4.6-2.7,4.1-5-.8-2.1-2.6,1.4-5.3,3.8-6.6,5.2Z"/>
      <path d="M1071.3,151v-34.8c0-1.1,.5-1.9,1.5-2.6,1-.6,2.4-1,4.1-1s2.6,.3,3.6,1c1,.7,1.5,1.5,1.5,2.6v2.7c.9-1.9,2.5-3.5,4.6-4.8s4.5-2,7.3-2c4.1,0,7.6,1.8,10.7,5.3,3,3.5,4.6,7.8,4.6,12.6v21c0,1.1-.6,2-1.7,2.7-1.1,.6-2.5,1-4,1s-2.8-.3-3.9-1c-1.2-.6-1.7-1.5-1.7-2.6v-20.9c0-2.1-.8-3.9-2.3-5.5-1.5-1.6-3.3-2.4-5.4-2.4s-3.6,.7-5.1,2.2c-1.4,1.5-2.2,3.4-2.2,5.7v20.9c0,.9-.6,1.7-1.7,2.5-1.2,.8-2.5,1.1-4,1.1s-2.9-.4-4-1.1c-1.1-.7-1.6-1.6-1.6-2.5Z"/>
      <path d="M1115.9,137.3v-7.3c0-4.8,1.9-9,5.7-12.6,3.8-3.6,8.3-5.4,13.5-5.4s9.6,1.8,13.4,5.3c3.8,3.5,5.7,7.8,5.7,12.6v7.3c0,4.8-1.9,9-5.7,12.6-3.8,3.7-8.3,5.5-13.4,5.5s-9.6-1.8-13.4-5.5c-3.8-3.7-5.7-7.9-5.7-12.6Zm11.4,0c0,2.1,.8,4,2.3,5.6,1.5,1.6,3.4,2.5,5.5,2.5s3.9-.8,5.4-2.5,2.3-3.5,2.3-5.6v-7.2c0-2-.8-3.8-2.3-5.4-1.6-1.6-3.4-2.5-5.4-2.5s-4,.8-5.5,2.4c-1.5,1.6-2.3,3.4-2.3,5.5v7.2Z"/>
      <path d="M1158.9,147.8c0-1.1,.4-2.2,1.2-3.3,.8-1.1,1.7-1.7,2.7-1.7s1.5,.3,2.5,.9c1,.6,2.3,1.2,3.9,1.8,1.6,.6,3.5,.9,5.7,.9,4.4,0,6.5-1.2,6.5-3.7s-.7-2.5-2.2-3.3c-1.4-.8-3.2-1.5-5.2-2-2-.5-4.1-1.1-6.1-1.8-2.1-.7-3.8-1.9-5.3-3.6-1.4-1.7-2.2-3.9-2.2-6.5s1.3-6.8,3.8-9.4,6.5-4,12-4,6.9,.6,9.8,1.7c2.9,1.1,4.3,2.5,4.3,4.1s-.4,2.2-1.2,3.5c-.8,1.3-1.8,2-3,2s-1.8-.4-3.8-1.1c-2.1-.7-4.1-1.1-5.9-1.1s-3.5,.4-4.6,1.2c-1.1,.8-1.6,1.7-1.6,2.7s.5,1.8,1.6,2.4c1.1,.6,2.4,1.1,3.9,1.5,1.6,.3,3.2,.8,5,1.4s3.5,1.3,5,2.1c1.5,.8,2.8,2.1,3.9,3.7,1,1.7,1.6,3.7,1.6,6.2,0,4.1-1.4,7.3-4.3,9.6-2.9,2.3-6.9,3.5-12,3.5s-8.2-.8-11.3-2.3c-3.1-1.5-4.7-3.3-4.7-5.3Z"/>
      <path d="M1216.7,151v-59.3c0-1.1,.5-1.9,1.5-2.6,1-.6,2.4-1,4.1-1s2.9,.3,4.1,1c1.1,.6,1.7,1.5,1.7,2.6v59.3c0,.9-.6,1.7-1.7,2.5-1.2,.8-2.5,1.1-4,1.1s-2.9-.4-4-1.1c-1.1-.7-1.6-1.6-1.6-2.5Z"/>
      <path d="M1237.1,98.2c0-1.4,.6-2.6,1.9-3.6,1.3-1,2.8-1.5,4.6-1.5s3.1,.5,4.2,1.5c1.2,1,1.7,2.2,1.7,3.6s-.6,2.5-1.7,3.5c-1.2,1-2.6,1.5-4.2,1.5s-3.4-.5-4.6-1.5c-1.3-1-1.9-2.2-1.9-3.5Zm1.1,52.8v-34.8c0-1.1,.5-1.9,1.5-2.6,1-.6,2.3-1,3.9-1s2.9,.3,4,1c1,.6,1.6,1.5,1.6,2.6v34.8c0,.9-.6,1.7-1.7,2.5-1.1,.8-2.4,1.1-3.9,1.1s-2.8-.4-3.9-1.1c-1-.7-1.6-1.6-1.6-2.5Z"/>
      <path d="M1258,151v-34.8c0-1.1,.5-1.9,1.5-2.6,1-.6,2.4-1,4.1-1s2.6,.3,3.6,1c1,.7,1.5,1.5,1.5,2.6v2.7c2.5-4.5,6.4-6.8,11.7-6.8s4.7,.8,6.7,2.5c2,1.6,3.4,3.8,4.4,6.5,1.5-2.9,3.4-5.1,5.8-6.6,2.4-1.5,4.9-2.3,7.6-2.3,4.2,0,7.9,1.6,11.1,4.9,3.1,3.2,4.7,7.6,4.7,13.1v21c0,.9-.6,1.7-1.7,2.5-1.1,.8-2.5,1.1-4,1.1s-2.8-.4-3.9-1.1c-1.1-.8-1.7-1.6-1.7-2.5v-20.9c0-2.5-.7-4.4-2.1-5.9s-3.1-2.2-5-2.2-3.5,.7-4.9,2.2c-1.4,1.4-2.1,3.4-2.1,5.8v21.1c0,1.2-.6,2.1-1.7,2.6-1.1,.6-2.5,.9-4.1,.9s-2.8-.3-3.9-.9c-1.2-.6-1.7-1.5-1.7-2.6v-21c0-2.4-.7-4.3-2.2-5.7-1.4-1.5-3.1-2.2-5.1-2.2s-3.5,.7-4.9,2.1c-1.4,1.4-2,3.4-2,5.8v20.9c0,.9-.6,1.7-1.7,2.5-1.2,.8-2.5,1.1-4,1.1s-2.9-.4-4-1.1c-1.1-.7-1.6-1.6-1.6-2.5Z"/>
      <path d="M1328.4,98.2c0-1.4,.6-2.6,1.9-3.6,1.3-1,2.8-1.5,4.6-1.5s3.1,.5,4.2,1.5c1.2,1,1.7,2.2,1.7,3.6s-.6,2.5-1.7,3.5c-1.2,1-2.6,1.5-4.2,1.5s-3.4-.5-4.6-1.5c-1.3-1-1.9-2.2-1.9-3.5Zm1.1,52.8v-34.8c0-1.1,.5-1.9,1.5-2.6,1-.6,2.3-1,3.9-1s2.9,.3,4,1c1,.6,1.6,1.5,1.6,2.6v34.8c0,.9-.6,1.7-1.7,2.5-1.1,.8-2.4,1.1-3.9,1.1s-2.8-.4-3.9-1.1c-1-.7-1.6-1.6-1.6-2.5Z"/>
      <path d="M1349.2,140.4v-42.4c0-1,.6-1.8,1.8-2.5,1.2-.7,2.5-1,3.9-1s2.9,.3,4,1,1.7,1.5,1.7,2.4v14.6h10.4c.9,0,1.6,.4,2.1,1.3,.5,.9,.8,2,.8,3.2s-.3,2.3-.8,3.2c-.5,.9-1.2,1.3-2.1,1.3h-10.4v18.4c0,1.6,.4,2.8,1.1,3.5s2,1,3.8,1h3.4c1.5,0,2.7,.5,3.6,1.5,.9,1,1.3,2.2,1.3,3.5s-.4,2.6-1.3,3.6c-.9,1-2,1.5-3.6,1.5h-3.4c-10.9,0-16.4-4.7-16.4-14.2Z"/>
      <path d="M1377.5,143.3c0-4.6,1.8-7.9,5.3-9.8,3.5-1.9,8.6-2.8,15.3-2.8h3.6v-1.2c0-2.2-.6-4.2-1.9-5.9-1.3-1.7-3.2-2.5-5.9-2.5s-4.9,.5-6.8,1.5c-1.9,1-3,1.5-3.3,1.5-1.2,0-2.1-.6-2.8-1.8-.7-1.2-1.1-2.5-1.1-3.9s1.5-3.2,4.6-4.5c3-1.3,6.2-1.9,9.6-1.9,6.4,0,11.2,1.6,14.3,4.9,3.1,3.3,4.7,7.4,4.7,12.3v21.7c0,1-.5,1.9-1.6,2.6-1.1,.7-2.4,1.1-4,1.1s-2.7-.4-3.7-1.1c-1-.8-1.5-1.7-1.5-2.7v-2.7c-4.1,4.9-8.6,7.4-13.4,7.4s-6.1-1-8.3-3.1c-2.2-2.1-3.2-5.1-3.2-9Zm11.4-1.4c0,1.5,.4,2.6,1.3,3.4,.9,.8,2,1.1,3.4,1.1s3.7-.8,5.5-2.5c1.8-1.7,2.7-3.5,2.7-5.5v-1.8h-1.3c-3.6,0-6.4,.3-8.4,1-2,.7-3.1,2.1-3.1,4.2Z"/>
      <path d="M1421.6,151v-34.8c0-1.1,.5-1.9,1.5-2.6,1-.6,2.4-1,4.1-1s2.6,.3,3.6,1c1,.7,1.5,1.5,1.5,2.6v2.7c.9-1.9,2.5-3.5,4.6-4.8s4.5-2,7.3-2c4.1,0,7.6,1.8,10.7,5.3,3,3.5,4.6,7.8,4.6,12.6v21c0,1.1-.6,2-1.7,2.7-1.1,.6-2.5,1-4,1s-2.8-.3-3.9-1c-1.2-.6-1.7-1.5-1.7-2.6v-20.9c0-2.1-.8-3.9-2.3-5.5-1.5-1.6-3.3-2.4-5.4-2.4s-3.6,.7-5.1,2.2c-1.4,1.5-2.2,3.4-2.2,5.7v20.9c0,.9-.6,1.7-1.7,2.5-1.2,.8-2.5,1.1-4,1.1s-2.9-.4-4-1.1c-1.1-.7-1.6-1.6-1.6-2.5Z"/>
    </g>
  </g>
</svg>