<?xml version="1.0" encoding="utf-8"?>
<!-- Generator: Adobe Illustrator 26.4.1, SVG Export Plug-In . SVG Version: 6.00 Build 0)  -->
<svg version="1.1" id="Capa_1" xmlns="http://www.w3.org/2000/svg" xmlns:xlink="http://www.w3.org/1999/xlink" x="0px" y="0px"
	 viewBox="0 0 37 37" enable-background="new 0 0 37 37" xml:space="preserve">
<g>
	<g>
		<path fill="#0080FF" d="M36.3,18.2c0-9.8-7.9-17.7-17.7-17.7S0.9,8.4,0.9,18.2c0,8.8,6.5,16.1,14.9,17.5V23.3h-4.5v-5.1h4.5v-3.9
			c0-4.4,2.6-6.9,6.7-6.9c1.9,0,4,0.3,4,0.3v4.4h-2.2c-2.2,0-2.9,1.4-2.9,2.8v3.3h4.9l-0.8,5.1h-4.1v12.4
			C29.8,34.3,36.3,27,36.3,18.2z"/>
		<path fill="#FFFFFF" d="M25.5,23.3l0.8-5.1h-4.9v-3.3c0-1.4,0.7-2.8,2.9-2.8h2.2V7.7c0,0-2-0.3-4-0.3c-4,0-6.7,2.4-6.7,6.9v3.9
			h-4.5v5.1h4.5v12.4c0.9,0.1,1.8,0.2,2.8,0.2s1.9-0.1,2.8-0.2V23.3H25.5z"/>
	</g>
</g>
</svg>
