<?xml version="1.0" encoding="UTF-8"?>
<svg id="Capa_2" data-name="Capa 2" xmlns="http://www.w3.org/2000/svg" width="249.7" height="100.7" viewBox="0 0 249.7 100.7">
  <g id="Capa_1-2" data-name="Capa 1">
    <g>
      <g>
        <path d="M169.7,13.7c-13.9,0-26.9,6-35.6,16.5-.4,.5-.4,1.2,0,1.7,7.9,9.4,19.3,15.3,31.6,16.3v14.8c-1.6,1.2-2.7,3.1-2.7,5.3v27.8c0,3.7,3,4.4,6.7,4.4s6.7-.8,6.7-4.4v-27.8c0-2.2-1-4.1-2.7-5.3v-14.8c12.4-1,23.7-6.8,31.6-16.3,.4-.5,.4-1.2,0-1.7-8.7-10.5-21.7-16.4-35.6-16.4Zm0,31.4c-12.2,0-23.7-5.1-31.6-14.1,7.9-9,19.3-14.1,31.6-14.1s23.7,5.1,31.6,14.1c-7.9,9-19.3,14.1-31.6,14.1Z"/>
        <path d="M169.7,19c-6.6,0-12,5.4-12,12s5.4,12,12,12,12-5.4,12-12-5.4-12-12-12Zm0,21.3c-5.1,0-9.3-4.2-9.3-9.3s4.2-9.3,9.3-9.3,9.3,4.2,9.3,9.3-4.2,9.3-9.3,9.3Z"/>
        <path d="M169.7,24.3c-3.7,0-6.7,3-6.7,6.7s.6,1.3,1.3,1.3,1.3-.6,1.3-1.3c0-2.2,1.8-4,4-4s1.3-.6,1.3-1.3c0-.7-.6-1.3-1.3-1.3Z"/>
        <path d="M137.8,21.7c.3,0,.7-.1,.9-.4,.5-.5,.5-1.4,0-1.9l-4-4c-.5-.5-1.4-.5-1.9,0-.5,.5-.5,1.4,0,1.9l4,4c.3,.3,.6,.4,.9,.4Z"/>
        <path d="M206.6,15.4c-.5-.5-1.4-.5-1.9,0l-4,4c-.5,.5-.5,1.4,0,1.9,.3,.3,.6,.4,.9,.4s.7-.1,.9-.4l4-4c.5-.5,.5-1.4,0-1.9Z"/>
        <path d="M150,13.1c.3,.4,.7,.6,1.1,.6s.5,0,.7-.2c.6-.4,.8-1.2,.4-1.8l-2.7-4c-.4-.6-1.2-.8-1.8-.4-.6,.4-.8,1.2-.4,1.8l2.7,4Z"/>
        <path d="M187.6,13.4c.2,.2,.5,.2,.7,.2,.4,0,.9-.2,1.1-.6l2.7-4c.4-.6,.2-1.4-.4-1.8-.6-.4-1.4-.2-1.8,.4l-2.7,4c-.4,.6-.2,1.4,.4,1.8Z"/>
        <path d="M169.7,11c.7,0,1.3-.6,1.3-1.3v-4c0-.7-.6-1.3-1.3-1.3s-1.3,.6-1.3,1.3v4c0,.7,.6,1.3,1.3,1.3Z"/>
      </g>
      <g>
        <path d="M0,82.8v-19.6c0-6,1.6-10.4,4.9-13.2,3.3-2.8,7.6-4.2,12.8-4.2s9.9,1.3,13.3,3.9c3.5,2.6,5.2,6.2,5.2,10.8s-.4,3.6-1.3,4.3c-.9,.8-2.4,1.1-4.4,1.1-3.7,0-5.6-1.2-5.8-3.5-.1-4.4-2.3-6.7-6.6-6.7s-6.7,2.5-6.7,7.4v19.6c0,4.9,2.2,7.4,6.7,7.4s2.5-.2,3.4-.7c.9-.4,1.6-1.1,2-2,.4-.9,.7-1.7,.8-2.3,.1-.6,.2-1.4,.3-2.4,.2-2.3,2.1-3.5,5.7-3.5s3.6,.4,4.5,1.1c.9,.8,1.3,2.2,1.3,4.3,0,4.8-1.7,8.6-5.2,11.3-3.5,2.8-7.9,4.1-13.3,4.1s-9.6-1.4-12.8-4.2c-3.3-2.8-4.9-7.2-4.9-13.2Z"/>
        <path d="M39.6,96.2v-28.2c0-1,.5-1.9,1.6-2.5,1.1-.6,2.4-1,4-1s2.6,.3,3.6,1c1,.6,1.5,1.5,1.5,2.5v2.8c.8-1.8,2-3.4,3.7-4.7,1.7-1.3,3.4-2,5.1-2h2.1c1.1,0,2,.5,2.8,1.5,.8,1,1.2,2.2,1.2,3.5s-.4,2.6-1.2,3.6c-.8,1-1.8,1.5-2.8,1.5h-2.1c-2.1,0-4,1-5.6,3.1-1.6,2-2.4,4.7-2.4,7.9v11.1c0,.9-.6,1.7-1.7,2.4-1.2,.7-2.5,1.1-4.1,1.1s-2.9-.4-4-1.1c-1.1-.7-1.6-1.5-1.6-2.5Z"/>
        <path d="M65.1,84.8v-5.4c0-4.2,1.7-7.8,5-10.8,3.3-3,7.3-4.5,12-4.5s8.1,1.3,11.2,4c3.1,2.6,4.7,6,4.7,10.1s-.2,2.8-.6,3.8c-.4,1-1,1.7-1.8,2.1-.8,.4-1.5,.6-2.2,.8-.7,.1-1.5,.2-2.6,.2h-14.3v.4c0,1.8,.7,3.3,2.1,4.5,1.4,1.1,3.2,1.7,5.5,1.7s3.5-.5,5.4-1.4c1.9-.9,3.2-1.4,3.8-1.4,1.2,0,2.2,.6,3,1.7,.8,1.2,1.2,2.3,1.2,3.3,0,1.5-1.3,3-4,4.5-2.6,1.5-5.9,2.2-9.8,2.2-5.5,0-10-1.4-13.5-4.3-3.5-2.9-5.2-6.7-5.2-11.4Zm11.5-6.2h9.2c1,0,1.6-.5,1.6-1.6s-.5-2.2-1.6-2.9c-1.1-.7-2.3-1.1-3.8-1.1s-2.7,.4-3.7,1.1c-1.1,.7-1.6,1.7-1.6,2.9v1.6Z"/>
        <path d="M99.3,90.3c0-3.9,1.5-6.7,4.5-8.3,3-1.6,7.3-2.4,12.8-2.4h2.7v-.8c0-1.5-.4-2.9-1.3-4-.9-1.1-2.3-1.7-4.2-1.7s-4.3,.5-5.8,1.4c-1.5,.9-2.5,1.4-2.8,1.4-1.2,0-2.1-.6-2.8-1.7-.7-1.2-1-2.5-1-4s1.4-3,4.1-4.2c2.7-1.2,5.6-1.7,8.5-1.7,5.7,0,9.9,1.4,12.7,4.1,2.8,2.8,4.2,6.2,4.2,10.4v17.6c0,1-.5,1.8-1.6,2.5-1.1,.7-2.4,1-4,1s-2.6-.4-3.6-1.1c-1-.7-1.5-1.6-1.5-2.7v-1.7c-3.4,4.2-7.1,6.3-11.2,6.3s-5-.9-6.8-2.6c-1.8-1.7-2.7-4.3-2.7-7.6Zm11.5-1.5c0,1.9,1,2.9,2.9,2.9s2.5-.6,3.7-1.9c1.2-1.3,1.8-2.7,1.8-4.4v-.3h-.3c-1.6,0-3,0-4,.2-1.1,.1-2,.5-2.8,1.1-.8,.6-1.3,1.4-1.3,2.4Z"/>
        <path d="M135,87.4V53.4c0-1,.6-1.8,1.8-2.4,1.2-.7,2.5-1,3.9-1s2.9,.3,4,1c1.2,.6,1.7,1.4,1.7,2.4v11.3h8.4c.9,0,1.6,.4,2.1,1.3,.5,.9,.7,1.9,.7,3.1s-.2,2.3-.7,3.1c-.5,.9-1.2,1.3-2.1,1.3h-8.4v13.6c0,1,.2,1.7,.7,2.1,.4,.4,1.2,.6,2.4,.6h3.2c1.6,0,2.8,.5,3.6,1.5,.8,1,1.3,2.2,1.3,3.5s-.4,2.6-1.3,3.6c-.8,1-2,1.5-3.6,1.5h-3.2c-9.7,0-14.5-4.1-14.5-12.3Z"/>
        <path d="M180.1,68.8c0-1.2,.9-2.3,2.7-3.3,1.8-1,3.5-1.5,5.1-1.5s2.7,.6,3.2,1.8l7.6,19.3,7.6-19.3c.5-1.2,1.5-1.8,3.1-1.8s3,.5,4.9,1.5c1.9,1,2.8,2.1,2.8,3.4s0,.9-.3,1.3l-13,28.5c-.6,1.3-2.3,2-5.2,2s-4.6-.7-5.2-2l-13-28.5c-.2-.4-.4-.9-.4-1.4Z"/>
        <path d="M218.2,90.3c0-3.9,1.5-6.7,4.5-8.3,3-1.6,7.3-2.4,12.8-2.4h2.7v-.8c0-1.5-.4-2.9-1.3-4-.9-1.1-2.3-1.7-4.2-1.7s-4.3,.5-5.8,1.4c-1.5,.9-2.5,1.4-2.8,1.4-1.2,0-2.1-.6-2.8-1.7-.7-1.2-1-2.5-1-4s1.4-3,4.1-4.2c2.7-1.2,5.6-1.7,8.5-1.7,5.7,0,9.9,1.4,12.7,4.1,2.8,2.8,4.2,6.2,4.2,10.4v17.6c0,1-.5,1.8-1.6,2.5-1.1,.7-2.4,1-4,1s-2.6-.4-3.6-1.1c-1-.7-1.5-1.6-1.5-2.7v-1.7c-3.4,4.2-7.1,6.3-11.2,6.3s-5-.9-6.8-2.6c-1.8-1.7-2.7-4.3-2.7-7.6Zm11.5-1.5c0,1.9,1,2.9,2.9,2.9s2.5-.6,3.7-1.9c1.2-1.3,1.8-2.7,1.8-4.4v-.3h-.3c-1.6,0-3,0-4,.2-1.1,.1-2,.5-2.8,1.1-.8,.6-1.3,1.4-1.3,2.4Z"/>
      </g>
      <g>
        <path d="M33.7,29.6c-3.7,4.6-8.9,9.9-14.2,12.4-8.9,4.1-13-1.8-9.7-12.4C11.7,23.3,20.4,3.4,27.7,.3c4.1-1.7,7.6,2.9,.1,12.9-4.6,6.1-9.4,11.3-14.7,16.8-1.7,5.2-2.9,12.5,4.9,8.8,4.8-2.3,9.6-7.3,13-11.4,1.1-1.3,3.7,.8,2.6,2.1Zm-16.8-8.4c1.9-2.1,5.8-6.4,8.6-10.4,4.7-6.8,3.1-8.7-2-1-2.8,4.1-5.4,9.1-6.6,11.4Z"/>
        <path d="M66.8,29.8c-3.2,2.7-13.4,10.9-17.9,7.3-1-.8-1.4-2.1-1.3-3.5-2.5,2.7-8.2,8.5-11.7,7.6-5.7-1.5,.1-10.8,1.7-13.4,.9-1.6,4.7-.2,3.7,1.4-1.3,2.3-7.6,12.2-.7,6.7,3.8-3.1,8.3-8.7,10.2-11.2,1-1.4,3.8,0,2.9,1.5-.8,1.5-3.6,7.4-2.3,8.2,2.5,1.7,11.9-5.7,13.4-7,1.5-1.3,3.6,1.2,2.1,2.4Z"/>
        <path d="M97,30.1c-5.6,1.1-13.6,3.1-18.1,6.8-1.1,.9-7.8,6.9-8.4,2.6-.3-2.5,6.2-5.4,7.5-6.3,3.8-2.7,7.8-12,1.3-7.6-6.2,4.2-12.4,12.9-16.5,19.3-1.6,4.5-8.3,24.4-11.9,26.1-1.9,.9-4-.4-2.7-4.6,.6-2.1,1.5-4.2,2.4-6.2,2.6-5.7,5.8-11.4,9.2-16.8,1.3-2.7,3.2-13,4.3-15.6,.6-1.4,4.5-.2,4.1,1.1-.5,1.6-1,3.1-1.5,4.7,16.1-20.7,22.1-11.1,18.2-3.7,2.1-.8,11.2-3.7,12.4-2.9,.7,.5,1.2,2.8-.3,3.1Z"/>
        <path d="M114.5,23.2c.6,.6,.9,1.2,.2,2.1-1.7,2-6.7,10.4-3.8,13.1,3.7,3.3,13.7-6.5,16.5-10.4,1-1.4,3.7,.8,2.6,2.2-3.8,4.5-11.9,13.4-18.8,12.5-4.8-.7-5.6-6.1-4.5-9.6-2.9,2.7-9.7,8.9-13.1,5.2-4.9-5.4,9.3-22.3,16-12.9,2.8-3.1,2.9-4,4.8-2.2Zm-18.1,12.1c.4,3.1,10.5-7,10.9-7.4-3.1-5.9-11.4,3.3-10.9,7.4Z"/>
      </g>
    </g>
  </g>
</svg>