<?xml version="1.0" encoding="UTF-8"?>
<svg id="Capa_2" data-name="Capa 2" xmlns="http://www.w3.org/2000/svg" width="426.6" height="76.8" viewBox="0 0 426.6 76.8">
  <g id="Capa_1-2" data-name="Capa 1">
    <g>
      <g>
        <g>
          <path d="M290,57.7h-9.1l-1.4,8h-8.1l10.1-50.7h8l10.1,50.7h-8.1l-1.4-8Zm-1.4-8l-3.2-18.2-3.2,18.2h6.4Z" style="fill: #c1c1c9;"/>
          <path d="M314.7,47.9v17.8h-8v-17.8l-9.8-32.9h8.4l5.4,18.2,5.5-18.2h8.4l-9.8,32.9Z" style="fill: #c1c1c9;"/>
          <path d="M340.5,57.7h-9.1l-1.4,8h-8.1l10.1-50.7h8l10.1,50.7h-8.1l-1.4-8Zm-1.4-8l-3.2-18.2-3.2,18.2h6.4Z" style="fill: #c1c1c9;"/>
          <path d="M379.4,65.8h-8.5l-6.2-16.2-2.8,6.3v9.9h-8V15.1h8v20.6l8.8-20.6h8.6l-10.2,24,10.2,26.6Z" style="fill: #c1c1c9;"/>
          <path d="M400.3,57.7h-9.1l-1.4,8h-8.1l10.1-50.7h8l10.1,50.7h-8.1l-1.4-8Zm-1.4-8l-3.2-18.2-3.2,18.2h6.4Z" style="fill: #c1c1c9;"/>
        </g>
        <path d="M336,0c2.7,0,4.8,2.2,4.8,4.8s-2.2,4.8-4.8,4.8-4.8-2.2-4.8-4.8,2.2-4.8,4.8-4.8Z" style="fill: #f1cd2e;"/>
        <path d="M269.5,74.8l-7.4,2c-2.6-5.5-4.5-11-5.7-16.4-1.3-5.5-1.9-11.1-1.9-16.8s.6-11.6,1.9-17.1c1.3-5.5,3.2-10.9,5.7-16.2l7.4,2c-2.3,4.8-4.1,9.8-5.2,14.9-1.1,5.2-1.7,10.6-1.7,16.3s.6,10.8,1.7,15.9c1.1,5.2,2.9,10.2,5.2,15.2Z" style="fill: #f1cd2e;"/>
        <path d="M416.8,59.5c1.1-5.2,1.7-10.5,1.7-15.9s-.6-11.2-1.7-16.3c-1.1-5.2-2.9-10.1-5.2-14.9l7.4-2c2.5,5.3,4.5,10.7,5.7,16.2,1.3,5.5,1.9,11.2,1.9,17.1s-.6,11.3-1.9,16.8c-1.3,5.5-3.2,11-5.7,16.4l-7.4-2c2.3-5,4.1-10.1,5.2-15.2Z" style="fill: #f1cd2e;"/>
      </g>
      <g>
        <g>
          <g>
            <path d="M0,36.8v-7.6c0-.1,0-.2,.2-.3,.1,0,.2-.1,.4-.1H4.6c.1,0,.2,0,.3,.2,0,.1,.1,.2,.1,.4s0,.3-.1,.4c0,.1-.2,.2-.3,.2H1.2v2.6h1.8c.1,0,.2,0,.3,.1,0,0,.1,.2,.1,.4s0,.2-.1,.3c0,0-.2,.1-.3,.1H1.2v2.6h3.4c.1,0,.2,0,.3,.2,0,.1,.1,.2,.1,.4s0,.3-.1,.4c0,.1-.2,.2-.3,.2H.5c-.1,0-.3,0-.4-.1s-.2-.2-.2-.3Z" style="fill: #c1c1c9;"/>
            <path d="M6.2,36c0-.1,0-.3,.2-.4,.1-.1,.2-.2,.4-.2s.2,0,.3,.1c.1,0,.2,.2,.4,.3,.1,.1,.3,.2,.5,.3,.2,0,.5,.1,.8,.1,.4,0,.8-.1,1.1-.3,.3-.2,.4-.5,.4-.9s-.1-.7-.4-.9c-.3-.2-.6-.4-.9-.6s-.7-.3-1.1-.5c-.4-.2-.7-.4-.9-.8-.3-.3-.4-.8-.4-1.3s0-.8,.2-1.1c.2-.3,.4-.5,.6-.7,.3-.2,.6-.3,.8-.3,.3,0,.6-.1,.9-.1s.4,0,.7,0c.2,0,.5,0,.7,.1,.2,0,.4,.1,.6,.3,.1,.1,.2,.2,.2,.4s0,.3-.1,.4c0,.1-.2,.2-.4,.2s-.2,0-.3-.1c-.1,0-.3-.1-.5-.2-.2,0-.5-.1-.8-.1-.4,0-.8,0-1,.3-.3,.2-.4,.4-.4,.8s0,.4,.2,.6c.1,.2,.3,.3,.5,.4,.2,.1,.5,.2,.7,.3,.3,.1,.5,.2,.8,.4,.3,.1,.5,.3,.7,.5,.2,.2,.4,.4,.5,.7,.1,.3,.2,.7,.2,1.1,0,.8-.2,1.4-.7,1.8-.5,.4-1.1,.6-1.9,.6s-1.3-.1-1.8-.4c-.5-.3-.7-.6-.7-.9Z" style="fill: #c1c1c9;"/>
            <path d="M12.5,29.4c0-.1,0-.3,.1-.4,0-.1,.2-.2,.3-.2h4.8c.1,0,.2,0,.3,.2,0,.1,.1,.2,.1,.4s0,.3-.1,.4c0,.1-.2,.2-.3,.2h-1.8v6.9c0,.1,0,.2-.2,.3-.1,0-.3,.1-.4,.1s-.3,0-.4-.1c-.1,0-.2-.2-.2-.3v-6.9h-1.8c-.1,0-.2,0-.3-.2,0-.1-.1-.2-.1-.4Z" style="fill: #c1c1c9;"/>
            <path d="M19.5,36.8v-7.6c0-.1,0-.2,.2-.3,.1,0,.2-.1,.4-.1h4.1c.1,0,.2,0,.3,.2,0,.1,.1,.2,.1,.4s0,.3-.1,.4c0,.1-.2,.2-.3,.2h-3.4v2.6h1.8c.1,0,.2,0,.3,.1,0,0,.1,.2,.1,.4s0,.2-.1,.3c0,0-.2,.1-.3,.1h-1.8v2.6h3.4c.1,0,.2,0,.3,.2,0,.1,.1,.2,.1,.4s0,.3-.1,.4c0,.1-.2,.2-.3,.2h-4.1c-.1,0-.3,0-.4-.1s-.2-.2-.2-.3Z" style="fill: #c1c1c9;"/>
          </g>
          <g>
            <path d="M30.2,37.4v-8.9c0-.2,0-.3,.2-.5,.1-.1,.3-.2,.6-.2h2.9c1,0,1.8,.3,2.4,.8,.6,.5,.9,1.3,.9,2.4h0c0,1.2-.3,2-.9,2.5-.6,.5-1.5,.8-2.5,.8h-1.4v3c0,.2-.1,.4-.3,.5-.2,.1-.5,.2-.8,.2s-.6,0-.8-.2c-.2-.1-.3-.3-.3-.5Zm2.2-4.7h1.4c.8,0,1.3-.5,1.3-1.4v-.2c0-.9-.4-1.4-1.3-1.4h-1.4v3Z" style="fill: #c1c1c9;"/>
            <path d="M38.9,37.3v-8.9c0-.2,0-.3,.2-.5,.1-.1,.3-.2,.5-.2h2.9c2.3,0,3.5,1,3.5,3s-.6,2.4-1.7,2.8l1.7,3.1c0,0,0,.2,0,.3,0,.3-.1,.5-.4,.8-.3,.2-.6,.4-.9,.4s-.6-.1-.7-.4l-1.9-3.7h-.9v3.4c0,.2-.1,.4-.3,.5-.2,.1-.5,.2-.8,.2s-.6,0-.8-.2c-.2-.1-.3-.3-.3-.5Zm2.2-5.1h1.4c.4,0,.7-.1,.9-.3,.2-.2,.3-.5,.3-1s-.1-.8-.3-1c-.2-.2-.5-.3-.9-.3h-1.4v2.6Z" style="fill: #c1c1c9;"/>
            <path d="M47.7,34.8v-3.7c0-1.1,.3-2,.9-2.5,.6-.5,1.5-.8,2.5-.8s1.9,.3,2.5,.8c.6,.5,.9,1.4,.9,2.5v3.7c0,1.1-.3,2-.9,2.5-.6,.5-1.5,.8-2.5,.8s-1.9-.3-2.5-.8c-.6-.5-.9-1.4-.9-2.5Zm2.2,0c0,.9,.4,1.4,1.2,1.4s1.3-.5,1.3-1.4v-3.7c0-.9-.4-1.4-1.3-1.4s-1.2,.5-1.2,1.4v3.7Z" style="fill: #c1c1c9;"/>
            <path d="M56.7,37.4v-8.9c0-.2,0-.3,.3-.5,.2-.1,.4-.2,.7-.2h2.5c1,0,1.9,.3,2.5,.8,.6,.5,.9,1.4,.9,2.5v3.6c0,1.1-.3,2-.9,2.5-.6,.5-1.5,.8-2.5,.8h-2.5c-.3,0-.5,0-.7-.2-.2-.1-.3-.3-.3-.5Zm2.2-1.2h1.2c.8,0,1.3-.5,1.3-1.4v-3.6c0-.9-.4-1.4-1.3-1.4h-1.2v6.4Z" style="fill: #c1c1c9;"/>
            <path d="M65.6,34.8v-6.4c0-.2,.1-.4,.3-.5,.2-.1,.5-.2,.8-.2s.6,0,.8,.2c.2,.1,.3,.3,.3,.5v6.4c0,.9,.4,1.4,1.3,1.4s1.3-.5,1.3-1.4v-6.4c0-.2,.1-.4,.3-.5,.2-.1,.5-.2,.8-.2s.6,0,.8,.2c.2,.1,.3,.3,.3,.5v6.4c0,1.1-.3,2-1,2.5-.6,.5-1.5,.8-2.6,.8s-1.9-.3-2.6-.8c-.6-.5-1-1.4-1-2.5Z" style="fill: #c1c1c9;"/>
            <path d="M74.8,34.8v-3.7c0-1.1,.3-2,.9-2.5,.6-.5,1.4-.8,2.4-.8s1.9,.2,2.5,.7c.7,.5,1,1.2,1,2s0,.7-.3,.8c-.2,.1-.4,.2-.8,.2-.7,0-1.1-.2-1.1-.7,0-.8-.4-1.3-1.2-1.3s-1.3,.5-1.3,1.4v3.7c0,.9,.4,1.4,1.3,1.4s.5,0,.7-.1c.2,0,.3-.2,.4-.4,0-.2,.1-.3,.1-.4,0-.1,0-.3,0-.5,0-.4,.4-.7,1.1-.7s.7,0,.9,.2c.2,.1,.3,.4,.3,.8,0,.9-.3,1.6-1,2.1-.7,.5-1.5,.8-2.5,.8s-1.8-.3-2.4-.8c-.6-.5-.9-1.4-.9-2.5Z" style="fill: #c1c1c9;"/>
            <path d="M82.8,28.8c0-.3,0-.5,.2-.7,.1-.2,.3-.3,.5-.3h6.1c.2,0,.4,0,.5,.3,.1,.2,.2,.4,.2,.7s0,.5-.2,.7c-.1,.2-.3,.3-.5,.3h-1.9v7.7c0,.2-.1,.4-.3,.5-.2,.1-.5,.2-.8,.2s-.6,0-.8-.2c-.2-.1-.3-.3-.3-.5v-7.7h-1.9c-.2,0-.4,0-.5-.3-.1-.2-.2-.4-.2-.7Z" style="fill: #c1c1c9;"/>
            <path d="M91.5,34.8v-3.7c0-1.1,.3-2,.9-2.5,.6-.5,1.5-.8,2.5-.8s1.9,.3,2.5,.8c.6,.5,.9,1.4,.9,2.5v3.7c0,1.1-.3,2-.9,2.5-.6,.5-1.5,.8-2.5,.8s-1.9-.3-2.5-.8c-.6-.5-.9-1.4-.9-2.5Zm2.2,0c0,.9,.4,1.4,1.2,1.4s1.3-.5,1.3-1.4v-3.7c0-.9-.4-1.4-1.3-1.4s-1.2,.5-1.2,1.4v3.7Z" style="fill: #c1c1c9;"/>
          </g>
          <g>
            <path d="M102.9,29.3c0-.1,0-.3,.3-.4,.2,0,.3-.1,.5-.1s.3,0,.4,.3l1.9,3.6,1.9-3.6c0-.2,.2-.3,.4-.3s.3,0,.5,.1c.2,0,.2,.2,.2,.4s0,.1,0,.2l-2.4,4.3s0,0,0,.1v2.9c0,.1,0,.2-.2,.3-.1,0-.3,.1-.4,.1s-.3,0-.4-.1c-.1,0-.2-.2-.2-.3v-2.9s0,0,0-.1l-2.4-4.3c0,0,0-.1,0-.2Z" style="fill: #c1c1c9;"/>
            <path d="M113,36c0-.1,0-.3,.2-.4,.1-.1,.2-.2,.4-.2s.2,0,.3,.1c.1,0,.2,.2,.4,.3,.1,.1,.3,.2,.5,.3,.2,0,.5,.1,.8,.1,.4,0,.8-.1,1.1-.3,.3-.2,.4-.5,.4-.9s-.1-.7-.4-.9c-.3-.2-.6-.4-.9-.6-.4-.1-.7-.3-1.1-.5-.4-.2-.7-.4-.9-.8-.3-.3-.4-.8-.4-1.3s0-.8,.2-1.1c.2-.3,.4-.5,.6-.7,.3-.2,.6-.3,.8-.3,.3,0,.6-.1,.9-.1s.4,0,.7,0c.2,0,.5,0,.7,.1,.2,0,.4,.1,.6,.3,.1,.1,.2,.2,.2,.4s0,.3-.1,.4c0,.1-.2,.2-.4,.2s-.2,0-.3-.1c-.1,0-.3-.1-.5-.2-.2,0-.5-.1-.8-.1-.4,0-.8,0-1,.3-.3,.2-.4,.4-.4,.8s0,.4,.2,.6c.1,.2,.3,.3,.5,.4,.2,.1,.5,.2,.7,.3,.3,.1,.5,.2,.8,.4,.3,.1,.5,.3,.7,.5,.2,.2,.4,.4,.5,.7,.1,.3,.2,.7,.2,1.1,0,.8-.2,1.4-.7,1.8-.5,.4-1.1,.6-1.9,.6s-1.3-.1-1.8-.4-.7-.6-.7-.9Z" style="fill: #c1c1c9;"/>
            <path d="M119.8,34.7v-5.5c0-.1,0-.2,.2-.3s.3,0,.4,0,.3,0,.4,0c.1,0,.2,.2,.2,.3v5.5c0,.5,.1,.9,.4,1.1,.2,.2,.6,.4,1,.4,.9,0,1.4-.5,1.4-1.5v-5.5c0-.1,0-.2,.2-.3s.3,0,.4,0,.3,0,.4,0,.2,.2,.2,.3v5.5c0,.9-.2,1.5-.7,1.9-.5,.4-1.1,.6-1.9,.6s-1.4-.2-1.9-.6c-.5-.4-.7-1.1-.7-1.9Z" style="fill: #c1c1c9;"/>
          </g>
          <g>
            <path d="M130,34.8v-3.7c0-1.1,.3-2,.9-2.5,.6-.5,1.4-.8,2.4-.8s1.9,.2,2.5,.7c.7,.5,1,1.2,1,2s0,.7-.3,.8c-.2,.1-.4,.2-.8,.2-.7,0-1.1-.2-1.1-.7,0-.8-.4-1.3-1.2-1.3s-1.3,.5-1.3,1.4v3.7c0,.9,.4,1.4,1.3,1.4s.5,0,.7-.1c.2,0,.3-.2,.4-.4,0-.2,.1-.3,.1-.4,0-.1,0-.3,0-.5,0-.4,.4-.7,1.1-.7s.7,0,.9,.2c.2,.1,.3,.4,.3,.8,0,.9-.3,1.6-1,2.1-.7,.5-1.5,.8-2.5,.8s-1.8-.3-2.4-.8c-.6-.5-.9-1.4-.9-2.5Z" style="fill: #c1c1c9;"/>
            <path d="M138.5,34.8v-3.7c0-1.1,.3-2,.9-2.5,.6-.5,1.5-.8,2.5-.8s1.9,.3,2.5,.8c.6,.5,.9,1.4,.9,2.5v3.7c0,1.1-.3,2-.9,2.5-.6,.5-1.5,.8-2.5,.8s-1.9-.3-2.5-.8c-.6-.5-.9-1.4-.9-2.5Zm2.2,0c0,.9,.4,1.4,1.2,1.4s1.3-.5,1.3-1.4v-3.7c0-.9-.4-1.4-1.3-1.4s-1.2,.5-1.2,1.4v3.7Z" style="fill: #c1c1c9;"/>
            <path d="M147.5,37.4v-8.9c0-.2,.1-.4,.3-.5,.2-.1,.5-.2,.8-.2s.7,0,.9,.2c.2,.1,.4,.4,.7,.9l2.3,4.3v-4.8c0-.2,.1-.4,.3-.5,.2-.1,.5-.2,.8-.2s.6,0,.8,.2c.2,.1,.3,.3,.3,.5v8.9c0,.2-.1,.4-.3,.5-.2,.1-.5,.2-.8,.2-.6,0-1-.2-1.2-.6l-2.7-4.9v4.8c0,.2-.1,.4-.3,.5-.2,.1-.5,.2-.8,.2s-.6,0-.8-.2c-.2-.1-.3-.3-.3-.5Z" style="fill: #c1c1c9;"/>
            <path d="M156.3,28.8c0-.3,0-.5,.2-.7,.1-.2,.3-.3,.5-.3h6.1c.2,0,.4,0,.5,.3,.1,.2,.2,.4,.2,.7s0,.5-.2,.7c-.1,.2-.3,.3-.5,.3h-1.9v7.7c0,.2-.1,.4-.3,.5-.2,.1-.5,.2-.8,.2s-.6,0-.8-.2c-.2-.1-.3-.3-.3-.5v-7.7h-1.9c-.2,0-.4,0-.5-.3-.1-.2-.2-.4-.2-.7Z" style="fill: #c1c1c9;"/>
            <path d="M165.2,37.4v-8.9c0-.2,0-.4,.3-.5,.2-.1,.4-.2,.7-.2h5c.2,0,.4,0,.5,.3s.2,.4,.2,.7,0,.5-.2,.7c-.1,.2-.3,.3-.5,.3h-3.8v2.4h2.1c.2,0,.4,0,.5,.3,.1,.2,.2,.4,.2,.6s0,.4-.2,.6c-.1,.2-.3,.3-.5,.3h-2.1v2.4h3.8c.2,0,.4,0,.5,.3,.1,.2,.2,.4,.2,.7s0,.5-.2,.7c-.1,.2-.3,.3-.5,.3h-5c-.3,0-.5,0-.7-.2-.2-.1-.3-.3-.3-.5Z" style="fill: #c1c1c9;"/>
            <path d="M173.5,37.4v-8.9c0-.2,.1-.4,.3-.5,.2-.1,.5-.2,.8-.2s.7,0,.9,.2c.2,.1,.4,.4,.7,.9l2.3,4.3v-4.8c0-.2,.1-.4,.3-.5,.2-.1,.5-.2,.8-.2s.6,0,.8,.2c.2,.1,.3,.3,.3,.5v8.9c0,.2-.1,.4-.3,.5-.2,.1-.5,.2-.8,.2-.6,0-1-.2-1.2-.6l-2.7-4.9v4.8c0,.2-.1,.4-.3,.5-.2,.1-.5,.2-.8,.2s-.6,0-.8-.2c-.2-.1-.3-.3-.3-.5Z" style="fill: #c1c1c9;"/>
            <path d="M182.9,37.4v-8.9c0-.2,.1-.4,.3-.5,.2-.1,.5-.2,.8-.2s.6,0,.8,.2c.2,.1,.3,.3,.3,.5v8.9c0,.2-.1,.4-.3,.5-.2,.1-.5,.2-.8,.2s-.6,0-.8-.2c-.2-.1-.3-.3-.3-.5Z" style="fill: #c1c1c9;"/>
            <path d="M187.3,37.4v-8.9c0-.2,0-.3,.3-.5,.2-.1,.4-.2,.7-.2h2.5c1,0,1.9,.3,2.5,.8,.6,.5,.9,1.4,.9,2.5v3.6c0,1.1-.3,2-.9,2.5-.6,.5-1.5,.8-2.5,.8h-2.5c-.3,0-.5,0-.7-.2-.2-.1-.3-.3-.3-.5Zm2.2-1.2h1.2c.8,0,1.3-.5,1.3-1.4v-3.6c0-.9-.4-1.4-1.3-1.4h-1.2v6.4Z" style="fill: #c1c1c9;"/>
            <path d="M196.2,34.8v-3.7c0-1.1,.3-2,.9-2.5,.6-.5,1.5-.8,2.5-.8s1.9,.3,2.5,.8c.6,.5,.9,1.4,.9,2.5v3.7c0,1.1-.3,2-.9,2.5-.6,.5-1.5,.8-2.5,.8s-1.9-.3-2.5-.8c-.6-.5-.9-1.4-.9-2.5Zm2.2,0c0,.9,.4,1.4,1.2,1.4s1.3-.5,1.3-1.4v-3.7c0-.9-.4-1.4-1.3-1.4s-1.2,.5-1.2,1.4v3.7Z" style="fill: #c1c1c9;"/>
          </g>
        </g>
        <g>
          <path d="M25.3,57v-9.3c0-.1,0-.3,.2-.4,.1,0,.3-.1,.5-.1h5c.2,0,.3,0,.4,.2,0,.1,.1,.3,.1,.4s0,.3-.1,.5c0,.1-.2,.2-.4,.2h-4.2v3.2h2.2c.1,0,.3,0,.4,.2,0,.1,.1,.3,.1,.4s0,.3-.1,.4c0,.1-.2,.2-.4,.2h-2.2v3.2h4.2c.1,0,.3,0,.4,.2,0,.1,.1,.3,.1,.5s0,.3-.1,.4c0,.1-.2,.2-.4,.2h-5c-.2,0-.3,0-.5-.1-.1,0-.2-.2-.2-.4Z" style="fill: #c1c1c9;"/>
          <path d="M32.8,55.9c0-.2,0-.4,.2-.5,.1-.2,.3-.3,.4-.3s.2,0,.4,.2c.1,.1,.3,.2,.4,.4,.1,.1,.4,.3,.6,.4,.3,.1,.6,.2,1,.2,.5,0,1-.1,1.3-.4,.3-.3,.5-.6,.5-1.1s-.2-.8-.5-1.1c-.3-.3-.7-.5-1.1-.7-.4-.2-.9-.4-1.3-.6-.4-.2-.8-.5-1.1-.9-.3-.4-.5-.9-.5-1.6s0-.9,.3-1.3c.2-.4,.5-.6,.8-.8,.3-.2,.7-.3,1-.4,.4,0,.7-.1,1.1-.1s.5,0,.8,0c.3,0,.5,0,.8,.2,.3,0,.5,.2,.7,.3s.3,.3,.3,.5,0,.4-.2,.5-.3,.3-.4,.3-.2,0-.4-.1c-.2,0-.4-.2-.6-.3-.3,0-.6-.1-.9-.1-.5,0-1,.1-1.3,.3-.3,.2-.5,.5-.5,1s0,.5,.3,.7c.2,.2,.4,.4,.7,.5,.3,.1,.6,.3,.9,.4,.3,.1,.7,.3,1,.4,.3,.2,.6,.4,.9,.6,.3,.2,.5,.5,.7,.9,.2,.4,.3,.8,.3,1.3,0,1-.3,1.7-.9,2.2-.6,.5-1.4,.8-2.3,.8s-1.6-.2-2.2-.5c-.6-.4-.9-.7-.9-1.1Z" style="fill: #c1c1c9;"/>
        </g>
        <g>
          <path d="M45.2,56.6v-10.9c0-.2,.1-.4,.3-.6,.2-.2,.5-.2,.8-.2h3c1.3,0,2.3,.3,3.1,1,.8,.7,1.1,1.7,1.1,3.1v4.4c0,1.4-.4,2.4-1.1,3.1-.8,.7-1.8,1-3.1,1h-3c-.3,0-.6,0-.8-.2-.2-.2-.3-.3-.3-.6Zm2.7-1.5h1.5c1,0,1.5-.6,1.5-1.7v-4.4c0-1.1-.5-1.7-1.5-1.7h-1.5v7.9Z" style="fill: #c1c1c9;"/>
          <path d="M56.2,56.6v-10.9c0-.3,.1-.5,.4-.6,.3-.1,.6-.2,.9-.2s.7,0,.9,.2c.3,.1,.4,.3,.4,.6v10.9c0,.3-.1,.5-.4,.6-.3,.1-.6,.2-.9,.2s-.7,0-.9-.2c-.3-.1-.4-.3-.4-.6Z" style="fill: #c1c1c9;"/>
          <path d="M61,55.3c0-.3,.1-.6,.4-1,.2-.3,.5-.5,.8-.5s.4,0,.6,.2c.2,.1,.4,.3,.6,.5s.4,.3,.7,.5c.3,.1,.7,.2,1,.2s.8,0,1.2-.3c.3-.2,.5-.5,.5-.8s-.2-.7-.6-1c-.4-.3-.8-.5-1.4-.8-.5-.2-1.1-.5-1.6-.8-.5-.3-1-.7-1.4-1.2-.4-.5-.6-1.2-.6-1.9,0-1.2,.4-2.1,1.3-2.7,.9-.6,1.9-.9,3.1-.9s.6,0,.9,0c.3,0,.7,.1,1.1,.2,.4,.1,.7,.3,1,.5,.3,.2,.4,.5,.4,.8s0,.6-.3,.9c-.2,.3-.4,.5-.8,.5s-.4-.1-.9-.3c-.4-.2-.9-.3-1.5-.3s-1,.1-1.3,.3-.4,.4-.4,.7,.1,.5,.4,.7c.3,.2,.6,.4,1,.6,.4,.2,.8,.4,1.3,.6,.5,.2,.9,.5,1.3,.8,.4,.3,.7,.7,1,1.2,.3,.5,.4,1.1,.4,1.8,0,1.2-.4,2.1-1.2,2.8-.8,.7-1.8,1-3.1,1s-2.1-.2-2.9-.7c-.8-.5-1.2-1-1.2-1.5Z" style="fill: #c1c1c9;"/>
          <path d="M71.6,56.6v-10.9c0-.3,.1-.5,.3-.6,.2-.1,.5-.2,.8-.2h6.1c.3,0,.5,.1,.6,.3s.2,.5,.2,.8,0,.6-.2,.8c-.1,.2-.3,.3-.6,.3h-4.6v2.9h2.6c.3,0,.4,.1,.6,.3,.1,.2,.2,.5,.2,.7s0,.5-.2,.7c-.1,.2-.3,.3-.6,.3h-2.6v2.9h4.6c.3,0,.4,.1,.6,.3,.1,.2,.2,.5,.2,.8s0,.6-.2,.8c-.1,.2-.3,.3-.6,.3h-6.1c-.3,0-.6,0-.8-.2-.2-.1-.3-.3-.3-.6Z" style="fill: #c1c1c9;"/>
          <path d="M81.7,56.6v-10.9c0-.3,.1-.5,.4-.6,.3-.1,.6-.2,.9-.2s.9,0,1.1,.2c.2,.1,.5,.5,.8,1.1l2.8,5.3v-5.8c0-.3,.1-.5,.4-.6,.3-.1,.6-.2,.9-.2s.7,0,.9,.2c.3,.1,.4,.3,.4,.6v10.9c0,.3-.1,.5-.4,.6-.3,.1-.6,.2-.9,.2-.7,0-1.2-.2-1.5-.7l-3.3-5.9v5.8c0,.3-.1,.5-.4,.6-.3,.1-.6,.2-.9,.2s-.7,0-.9-.2c-.3-.1-.4-.3-.4-.6Zm1.2-14.1c0-.8,.5-1.3,1.5-1.3s.8,0,1.3,.2c.5,.2,.9,.2,1.2,.2s.5,0,.9-.2c.3-.1,.5-.2,.6-.2,.2,0,.4,.1,.5,.3,.1,.2,.2,.4,.2,.5,0,.8-.5,1.3-1.5,1.3s-.9,0-1.4-.2c-.5-.2-.9-.2-1.1-.2s-.5,0-.9,.2c-.3,.1-.5,.2-.6,.2-.2,0-.4,0-.5-.3-.1-.2-.2-.4-.2-.5Z" style="fill: #c1c1c9;"/>
          <path d="M92.3,56.3s0,0,0-.2l3.2-10.4c0-.3,.3-.5,.6-.7,.3-.2,.7-.2,1.1-.2s.8,0,1.1,.2c.3,.2,.5,.4,.6,.7l3.2,10.4c0,0,0,.2,0,.2,0,.3-.2,.6-.6,.8-.4,.2-.8,.3-1.2,.3s-.8-.2-.9-.5l-.6-2.1h-3.6l-.6,2.1c0,.3-.4,.5-.9,.5s-.8-.1-1.2-.3c-.4-.2-.6-.5-.6-.8Zm3.7-3.6h2.5l-1.3-4.6-1.3,4.6Z" style="fill: #c1c1c9;"/>
          <path d="M104.1,56.6v-10.9c0-.2,.1-.4,.3-.6,.2-.2,.5-.2,.8-.2h3c1.3,0,2.3,.3,3.1,1,.8,.7,1.1,1.7,1.1,3.1v4.4c0,1.4-.4,2.4-1.1,3.1-.8,.7-1.8,1-3.1,1h-3c-.3,0-.6,0-.8-.2-.2-.2-.3-.3-.3-.6Zm2.7-1.5h1.5c1,0,1.5-.6,1.5-1.7v-4.4c0-1.1-.5-1.7-1.5-1.7h-1.5v7.9Z" style="fill: #c1c1c9;"/>
          <path d="M114.9,53.5v-4.5c0-1.4,.4-2.4,1.1-3.1,.8-.7,1.8-1,3-1s2.3,.3,3.1,1c.8,.7,1.1,1.7,1.1,3.1v4.5c0,1.4-.4,2.4-1.1,3.1-.8,.7-1.8,1-3.1,1s-2.3-.3-3-1c-.8-.7-1.1-1.7-1.1-3.1Zm2.7,0c0,1.1,.5,1.7,1.5,1.7s1.5-.6,1.5-1.7v-4.5c0-1.1-.5-1.7-1.5-1.7s-1.5,.6-1.5,1.7v4.5Z" style="fill: #c1c1c9;"/>
        </g>
        <g>
          <path d="M133.7,54.4v-4.1c0-1.1,.3-1.9,.9-2.4,.6-.5,1.3-.8,2.3-.8s1.7,.2,2.3,.7c.6,.5,.9,1.1,.9,1.8s0,.5-.2,.6c-.1,.1-.3,.2-.6,.2-.5,0-.7-.2-.7-.5,0-1-.6-1.5-1.6-1.5s-1.7,.6-1.7,1.8v4.1c0,1.2,.6,1.8,1.7,1.8s.6,0,.8-.1,.4-.2,.5-.4c0-.2,.2-.4,.2-.5,0-.1,0-.3,0-.5,0-.3,.3-.5,.7-.5s.5,0,.6,.2c.1,.1,.2,.3,.2,.6,0,.8-.3,1.4-.9,1.9-.6,.5-1.4,.7-2.3,.7s-1.7-.3-2.2-.8c-.6-.5-.9-1.3-.9-2.4Z" style="fill: #c1c1c9;"/>
          <path d="M142,54.4v-4.1c0-1.1,.3-1.9,.9-2.4,.6-.5,1.3-.8,2.3-.8s1.7,.3,2.3,.8c.6,.5,.9,1.3,.9,2.4v4.1c0,1.1-.3,1.9-.9,2.4-.6,.5-1.3,.8-2.3,.8s-1.7-.3-2.3-.8c-.6-.5-.9-1.3-.9-2.4Zm1.5,0c0,1.2,.6,1.8,1.7,1.8s.9-.1,1.2-.4c.3-.3,.4-.8,.4-1.4v-4.1c0-.6-.1-1.1-.4-1.4-.3-.3-.7-.4-1.2-.4-1.1,0-1.7,.6-1.7,1.8v4.1Z" style="fill: #c1c1c9;"/>
          <path d="M150.8,57v-9.3c0-.3,.2-.5,.7-.5s.5,0,.6,.2c.2,.1,.3,.3,.5,.7l3.1,6.1v-6.4c0-.2,0-.3,.2-.4,.1,0,.3-.1,.5-.1s.4,0,.5,.1,.2,.2,.2,.4v9.3c0,.2,0,.3-.2,.4-.1,0-.3,.1-.5,.1-.4,0-.7-.2-.9-.5l-3.4-6.4v6.4c0,.2,0,.3-.2,.4-.1,0-.3,.1-.5,.1s-.4,0-.5-.1c-.2,0-.2-.2-.2-.4Z" style="fill: #c1c1c9;"/>
        </g>
        <g>
          <path d="M213.8,57v-9.3c0-.1,0-.2,.2-.3,.1,0,.2-.1,.4-.1h2.7c.9,0,1.7,.2,2.2,.7,.6,.5,.8,1.3,.8,2.3h0c0,1.2-.3,2-.9,2.5-.6,.5-1.3,.8-2.3,.8h-1.7v3.5c0,.2,0,.3-.2,.4-.1,0-.3,.1-.5,.1s-.4,0-.5-.1c-.2,0-.2-.2-.2-.4Zm1.5-4.6h1.7c.5,0,.9-.2,1.2-.5,.3-.3,.4-.8,.4-1.4v-.2c0-.6-.1-1.1-.4-1.4-.3-.3-.7-.4-1.2-.4h-1.7v3.8Z" style="fill: #c1c1c9;"/>
          <path d="M222.1,54.4v-4.1c0-1.1,.3-1.9,.9-2.4,.6-.5,1.3-.8,2.3-.8s1.7,.3,2.3,.8c.6,.5,.9,1.3,.9,2.4v4.1c0,1.1-.3,1.9-.9,2.4-.6,.5-1.3,.8-2.3,.8s-1.7-.3-2.3-.8c-.6-.5-.9-1.3-.9-2.4Zm1.5,0c0,1.2,.6,1.8,1.7,1.8s.9-.1,1.2-.4c.3-.3,.4-.8,.4-1.4v-4.1c0-.6-.1-1.1-.4-1.4-.3-.3-.7-.4-1.2-.4-1.1,0-1.7,.6-1.7,1.8v4.1Z" style="fill: #c1c1c9;"/>
          <path d="M230.8,57v-9.3c0-.1,0-.2,.1-.3,0,0,.2-.1,.4-.1h2.7c2.2,0,3.2,1,3.2,2.9s-.2,1.4-.5,1.9c-.4,.5-.8,.8-1.4,.9l2,3.7c0,0,0,.1,0,.2,0,.2,0,.4-.3,.5-.2,.2-.4,.2-.6,.2s-.4-.1-.6-.4l-2.1-4h-1.4v3.9c0,.2,0,.3-.2,.4-.1,0-.3,.1-.5,.1s-.4,0-.5-.1c-.1,0-.2-.2-.2-.4Zm1.5-5.1h1.7c1.2,0,1.7-.6,1.7-1.7s-.6-1.7-1.7-1.7h-1.7v3.3Z" style="fill: #c1c1c9;"/>
          <path d="M239.4,53c-.2-.2-.2-.3-.2-.5s0-.4,.2-.5c.2-.2,.4-.2,.6-.2s.4,0,.6,.2c.2,.2,.3,.3,.3,.5s0,.4-.3,.5c-.2,.2-.4,.2-.6,.2s-.5,0-.6-.2Zm0,4.3c-.2-.2-.2-.3-.2-.5s0-.4,.2-.5c.2-.2,.4-.2,.6-.2s.4,0,.6,.2c.2,.2,.3,.3,.3,.5s0,.4-.3,.5c-.2,.2-.4,.2-.6,.2s-.5,0-.6-.2Z" style="fill: #c1c1c9;"/>
        </g>
        <g>
          <g>
            <path d="M160.4,56.3s0,0,0-.2l3.2-10.4c0-.3,.3-.5,.6-.7,.3-.2,.7-.2,1.1-.2s.8,0,1.1,.2c.3,.2,.5,.4,.6,.7l3.2,10.4c0,0,0,.2,0,.2,0,.3-.2,.6-.6,.8-.4,.2-.8,.3-1.2,.3s-.8-.2-.9-.5l-.6-2.1h-3.6l-.6,2.1c0,.3-.4,.5-.9,.5s-.8-.1-1.2-.3c-.4-.2-.6-.5-.6-.8Zm3.7-3.6h2.5l-1.3-4.6-1.3,4.6Z" style="fill: #c1c1c9;"/>
            <path d="M172.2,56.6v-10.4c0-.5,.1-.8,.4-1,.3-.2,.6-.3,1-.3s.9,0,1.2,.2,.6,.5,.9,1.1l1.8,3.1,1.8-3.1c.3-.6,.6-1,.9-1.1,.3-.2,.7-.2,1.2-.2s.7,.1,1,.3c.3,.2,.4,.6,.4,1v10.4c0,.3-.1,.5-.4,.6-.3,.1-.6,.2-.9,.2s-.7,0-.9-.2c-.3-.1-.4-.3-.4-.6v-6.4l-1.6,2.8c-.2,.3-.5,.5-.9,.5s-.7-.2-.8-.5l-1.6-3v6.6c0,.3-.1,.5-.4,.6-.3,.1-.6,.2-.9,.2s-.7,0-.9-.2c-.3-.1-.4-.3-.4-.6Z" style="fill: #c1c1c9;"/>
            <path d="M185.1,53.5v-4.5c0-1.4,.4-2.4,1.1-3.1,.8-.7,1.8-1,3-1s2.3,.3,3.1,1c.8,.7,1.1,1.7,1.1,3.1v4.5c0,1.4-.4,2.4-1.1,3.1-.8,.7-1.8,1-3.1,1s-2.3-.3-3-1c-.8-.7-1.1-1.7-1.1-3.1Zm2.7,0c0,1.1,.5,1.7,1.5,1.7s1.5-.6,1.5-1.7v-4.5c0-1.1-.5-1.7-1.5-1.7s-1.5,.6-1.5,1.7v4.5Z" style="fill: #c1c1c9;"/>
            <path d="M196.1,56.6v-10.9c0-.2,0-.4,.2-.6,.2-.2,.4-.2,.6-.2h3.5c2.8,0,4.2,1.2,4.2,3.7s-.7,2.9-2.1,3.5l2.1,3.8c0,0,0,.2,0,.3,0,.3-.2,.6-.5,.9-.4,.3-.7,.4-1.1,.4s-.7-.2-.9-.5l-2.3-4.6h-1.1v4.1c0,.3-.1,.5-.4,.6-.3,.1-.6,.2-.9,.2s-.7,0-.9-.2c-.3-.1-.4-.3-.4-.6Zm2.7-6.2h1.7c.5,0,.9-.1,1.1-.4,.3-.2,.4-.7,.4-1.2s-.1-1-.4-1.2c-.3-.2-.6-.4-1.1-.4h-1.7v3.2Z" style="fill: #c1c1c9;"/>
          </g>
          <path d="M133.4,62.3l-2.5,.7c-.9-1.8-1.5-3.6-1.9-5.5-.4-1.8-.6-3.7-.6-5.6s.2-3.8,.6-5.7c.4-1.8,1.1-3.6,1.9-5.4l2.5,.7c-.8,1.6-1.4,3.3-1.7,5-.4,1.7-.6,3.5-.6,5.4s.2,3.6,.6,5.3c.4,1.7,1,3.4,1.7,5.1Z" style="fill: #f1cd2e;"/>
          <path d="M206.8,57.2c.4-1.7,.6-3.5,.6-5.3s-.2-3.7-.6-5.4c-.4-1.7-1-3.4-1.7-5l2.5-.7c.8,1.7,1.5,3.5,1.9,5.4,.4,1.8,.6,3.7,.6,5.7s-.2,3.8-.6,5.6c-.4,1.8-1.1,3.6-1.9,5.5l-2.5-.7c.8-1.7,1.4-3.4,1.7-5.1Z" style="fill: #f1cd2e;"/>
        </g>
      </g>
    </g>
  </g>
</svg>