<?xml version="1.0" encoding="utf-8"?>
<!-- Generator: Adobe Illustrator 26.4.1, SVG Export Plug-In . SVG Version: 6.00 Build 0)  -->
<svg version="1.1" id="Capa_1" xmlns="http://www.w3.org/2000/svg" xmlns:xlink="http://www.w3.org/1999/xlink" x="0px" y="0px"
	 viewBox="0 0 37 37" enable-background="new 0 0 37 37" xml:space="preserve">
<g>
	<linearGradient id="SVGID_1_" gradientUnits="userSpaceOnUse" x1="29.6965" y1="6.0094" x2="5.7741" y2="29.9318">
		<stop  offset="0" style="stop-color:#007BB8"/>
		<stop  offset="1" style="stop-color:#0044E9"/>
	</linearGradient>
	<circle fill="url(#SVGID_1_)" cx="17.7" cy="18" r="16.9"/>
	<path fill="#FFFFFF" d="M10.6,14.8h3.3v10.5h-3.3V14.8z M12.3,9.6c1,0,1.9,0.8,1.9,1.9c0,1-0.8,1.9-1.9,1.9c-1.1,0-1.9-0.9-1.9-1.9
		C10.4,10.4,11.2,9.6,12.3,9.6"/>
	<path fill="#FFFFFF" d="M16,14.8h3.1v1.4h0c0.4-0.8,1.5-1.7,3.1-1.7c3.3,0,3.9,2.2,3.9,5v5.8h-3.3v-5.1c0-1.2,0-2.8-1.7-2.8
		c-1.7,0-2,1.3-2,2.7v5.2H16V14.8z"/>
</g>
</svg>
