<?xml version="1.0" encoding="UTF-8"?>
<svg id="Capa_2" data-name="Capa 2" xmlns="http://www.w3.org/2000/svg" width="29.5" height="29.5" viewBox="0 0 29.5 29.5">
  <g id="Capa_1-2" data-name="Capa 1">
    <g>
      <g>
        <path d="M14.7,28.5c-2.5,0-4.9-.7-7-1.9h-.1c0,0-6.1,1.5-6.1,1.5l1.6-5.9h0c-1.4-2.3-2.1-4.8-2.1-7.4,0-7.6,6.2-13.7,13.7-13.7s7.2,1.5,9.7,4c2.6,2.5,4,6.1,4,9.7,0,7.6-6.2,13.7-13.7,13.7h0Z" style="fill: #25d366;"/>
        <path d="M14.8,2c3.4,0,6.6,1.3,9,3.7,2.4,2.4,3.7,5.6,3.7,9,0,7-5.7,12.7-12.7,12.7h0c-2.3,0-4.5-.6-6.5-1.8l-.5-.3-4.8,1.3,1.3-4.7-.3-.5c-1.3-2-1.9-4.4-1.9-6.8,0-7,5.7-12.7,12.7-12.7,0,0,0,0,0,0m0-2h0C6.6,0,0,6.6,0,14.7c0,2.7,.7,5.3,2.1,7.6l-1.1,3.8L.1,29.5l3.4-.9,4-1.1c2.2,1.2,4.7,1.9,7.2,1.9,8.1,0,14.7-6.6,14.7-14.7,0-3.9-1.6-7.7-4.3-10.4C22.4,1.6,18.6,0,14.8,0h0Z" style="fill: #fff;"/>
      </g>
      <path d="M10.9,8.3c-.3-.6-.6-.6-.9-.7h-.7c-.3,0-.7,0-1,.5s-1.3,1.3-1.3,3.2,1.4,3.7,1.6,4,2.6,4.2,6.5,5.8c3.2,1.3,3.9,1,4.6,1s2.3-.9,2.6-1.8,.3-1.7,.2-1.8-.4-.3-.7-.4-2.3-1.1-2.6-1.2-.6-.2-.9,.2-1,1.2-1.2,1.5-.4,.3-.8,0-1.6-.6-3.1-1.9c-1.1-1-1.9-2.3-2.1-2.6s0-.6,.2-.8c.2-.2,.4-.4,.6-.7s.3-.4,.4-.6,0-.5,0-.7-.8-2.1-1.2-2.8" style="fill: #fff; fill-rule: evenodd;"/>
    </g>
  </g>
</svg>