<?xml version="1.0" encoding="utf-8"?>
<!-- Generator: Adobe Illustrator 26.3.1, SVG Export Plug-In . SVG Version: 6.00 Build 0)  -->
<svg version="1.1" id="Capa_1" xmlns="http://www.w3.org/2000/svg" xmlns:xlink="http://www.w3.org/1999/xlink" x="0px" y="0px"
	 viewBox="0 0 70 69" enable-background="new 0 0 70 69" xml:space="preserve">
<g>
	
		<image overflow="visible" width="2464" height="2443" xlink:href="FC97CA80.png"  transform="matrix(2.840635e-02 0 0 2.840635e-02 0 0)">
	</image>
	<g>
		<g>
			<path d="M18.4,45.9c0-0.6,0.2-1.2,0.6-1.9l8.1-10.8l-7.3-9.8c-0.5-0.6-0.7-1.2-0.7-1.8c0-1.2,0.9-2.4,2.7-3.7
				c1.8-1.3,3.4-1.9,4.9-1.9c1.1,0,1.9,0.4,2.4,1.2l5.8,9.4l5.8-9.4c0.5-0.8,1.3-1.2,2.5-1.2c1.4,0,3,0.6,4.8,1.9
				c1.8,1.3,2.7,2.5,2.7,3.7c0,0.5-0.2,1.1-0.7,1.8l-7.4,9.9l8.2,10.7c0.4,0.5,0.6,1.2,0.6,1.9c0,1.2-0.9,2.4-2.6,3.6
				c-1.7,1.3-3.3,1.9-4.8,1.9c-1.2,0-2-0.4-2.5-1.2l-6.6-9.9l-6.6,9.9c-0.6,0.8-1.5,1.2-2.7,1.2c-1.2,0-2.8-0.6-4.5-1.9
				S18.4,47.1,18.4,45.9z"/>
		</g>
	</g>
</g>
</svg>
